<svg id="Capa_1" data-name="Capa 1" xmlns="http://www.w3.org/2000/svg" viewBox="0 0 498.22 500"><defs><style>.cls-1{fill:#fff;}.cls-2{fill:#4bc08f;}.cls-3{fill:#45a69a;}.cls-4{fill:#eaf0f7;}.cls-5{fill:#515570;}.cls-6{fill:#393c54;}.cls-7{fill:#feba93;}.cls-8{fill:#faa775;}.cls-9{fill:#faa875;}.cls-10{fill:#373a53;}.cls-11{fill:#f55565;}.cls-12{fill:#f4f4f5;}.cls-13{fill:#bc9486;}.cls-14{fill:#bb9386;}.cls-15{fill:#bc9487;}.cls-16{fill:#61657d;}</style></defs><title>avatar_varon</title><path class="cls-1" d="M393.43,385.43C369.23,382,95.71,345.22,81.05,419.64c-2.83,16.74,49.11,53.3,101.81,67.5,49.88,14,122.19,9.71,160.28-8.57,60.68-29.11,69.15-41.68,75.93-56C422.84,419.71,405.52,397,393.43,385.43Z" transform="translate(-1.79)"/><path class="cls-2" d="M110.19,392.89c-10.53,8.32-16.55,19.51-21.11,31.91-6.62,18,8.92,21-13.2,2.6C39.8,390.91,15.32,348,6.18,297.39-19.44,155.65,69.41,27.31,212,3.39c130.8-21.95,257.44,64.83,283,198.12,16.62,86.61-8.2,161.66-69,225.07-23.21,21.62-9.93,13.15-14-3.07a55.09,55.09,0,0,0-20.85-30.75c-1-7.9,5.49-11.87,9.5-16.67,25.49-30.54,40.15-65.43,44.82-104.9,5.92-50.12-6.85-95.24-35.51-136.1-16.24-23.14-36-42.67-62.22-54.69-11.23-7.85-21.51-17-33.81-23.41C263.54,30.72,206.5,36.77,163,73.33c-3,2.52-5.8,5.32-9.41,7C118.83,97,94.15,124.27,77.39,157.93c-37.77,75.84-30,148,21.17,215.55C103.07,379.43,110.7,383.82,110.19,392.89Z" transform="translate(-1.79)"/><path class="cls-3" d="M110.19,392.89c-20.34-24.5-39.26-49.76-48.8-80.89Q29.32,207.47,97.53,122.3c15.14-18.88,32.26-35,55.06-44.2,1.2,4.58-2,7.43-4.37,10.38-22.08,27.22-31.86,58.33-30.38,93.26.38,9,.87,18.11-.82,27.09-.92,3.46-3,6.35-4.68,9.44-10.28,18.63-4.74,35.37,14.72,44.59,2.47,1.17,5.17,1.89,7.24,3.83,2.73,4,3.38,8.77,4.2,13.39,6.32,35.8,26.83,61.17,57.77,78.94,5.37,3.08,11.84,4.69,14.88,11,1.19,4,1.17,7.78-1.42,11.27-10,4.25-20.74,2.91-31.17,3.89C155.49,385.28,131.9,380.75,110.19,392.89Z" transform="translate(-1.79)"/><path class="cls-3" d="M348.64,78.1c20.22,7.17,35.58,21.37,49.33,36.75,24.41,27.31,40.76,59.06,48.08,95.36,10.07,49.86,1.05,96.3-23.53,140.25-8.65,15.47-20.82,28.3-31.42,42.3-21.77-11.87-45.34-7.54-68.42-7.61-10.34-1-20.95.17-30.95-3.71-2.78-3.38-2.81-7.19-1.76-11.16,2.58-6,8.57-7.69,13.65-10.52,31.95-17.83,52.94-43.72,59.26-80.45.73-4.24,1.46-8.54,3.81-12.31,30.52-13.78,34-31.71,17.61-57.94-2.13-15.19-.08-30.49-1.18-45.68a130.34,130.34,0,0,0-26.55-70.32C353.2,88.59,347.65,85,348.64,78.1Z" transform="translate(-1.79)"/><path class="cls-4" d="M292.42,379.72c10.14,1.51,21.37-3.09,30.26,5.43,5.85,16.56-3.56,29.5-10.91,42.45-6.58,11.57-17.86,19.54-26.26,29.72-5.32,6.44-10.08-2.32-14.46,1.37-6.18-9.27-16.71-15.09-20.76-26.08.53-8.15,6.7-13.07,11.42-18.46C271.84,402.59,278.75,388.12,292.42,379.72Z" transform="translate(-1.79)"/><path class="cls-4" d="M178.56,385.15c8.87-8.54,20.13-3.88,30.26-5.46,13.3,7.82,19.82,21.8,29.46,32.92,4.94,5.71,11.77,10.75,12.25,19.48-3.62,11.45-12.68,17.92-22.06,24.09-5.22,4.79-9.33,4.57-14.66-.94-15.88-16.45-31.64-32.56-36.22-56.43C176.61,393.69,178.16,389.67,178.56,385.15Z" transform="translate(-1.79)"/><path class="cls-5" d="M228.47,456.18c5.6-9.35,15-15.24,21.61-23.65h1.07c5.18,5.32,10.21,10.83,15.62,15.91,3.1,2.91,4.86,6,4.28,10.25l-7.57,9.47c-8.78,7.78-17,7.77-25.8,0C233.13,465.29,231.11,460.49,228.47,456.18Z" transform="translate(-1.79)"/><path class="cls-6" d="M237.68,468.13a32.62,32.62,0,0,0,25.8,0c.25,2.73.43,5.47.76,8.19,3,24.24,1.62,25.39-23.07,22.56-5.31-.61-6.61-2.63-6-7.43C236.17,483.72,236.86,475.92,237.68,468.13Z" transform="translate(-1.79)"/><path class="cls-6" d="M348.64,78.1c35.88,37.25,41.42,83.22,37.92,131.79-6.8,1.82-10.21-2.68-13.59-7.27-3.43-15-.29-30.47-3.18-45.69-8.76-46.25-35.61-77.6-79.29-92.7C232,44,172.77,68,142.5,122.22c-9.79,17.53-12.64,37-12.86,56.86-.09,7.82,1,15.73-1.31,23.44-3.34,4.7-6.8,9.2-13.66,7.37-.37-31.58-2.7-63.31,11.82-93.12,6.92-14.21,16.24-26.56,26.1-38.67,28.33-25.66,60.71-40.81,99.79-40.33C290.11,38.23,321.29,53.36,348.64,78.1Z" transform="translate(-1.79)"/><path class="cls-7" d="M367.75,267.41c-4.23,43.47-25.86,75.25-64.33,95.69-3.79,2-7.69,3.8-11.54,5.69-16.93,11.91-36.15,11.68-55.32,9.42-9.46-1.12-19.87-1.3-27.19-9.39-32.64-14.2-56.94-36.53-69.36-70.64a117.82,117.82,0,0,1-6.53-30.77c-2.93-3.53-3.54-7.77-3.49-12.12.19-16.77-1-33.57.73-50.31,8.8-13.49,9.4-28.52,9.17-44.08-.27-17.84,6.46-23.94,24.11-24.72,15.54-.69,29.58,1.5,43.82,9.91,28.61,16.9,59.17,16.62,87.41-1,15.89-9.91,32-9.52,48.76-8.27,9.82.73,15.48,7,17.05,16.74a38,38,0,0,1,.47,8.24c-.94,15.13.22,29.81,8.93,42.94,1.81,17.6.75,35.23.69,52.85A15.2,15.2,0,0,1,367.75,267.41Z" transform="translate(-1.79)"/><path class="cls-8" d="M209.37,368.82q41.25,13.88,82.51,0l.54,10.94-41.27,52.8h-1.07l-41.26-52.84Q209.09,374.26,209.37,368.82Z" transform="translate(-1.79)"/><path class="cls-9" d="M133.2,202.44q.13,32.49.28,65c-29.68-6.69-37.9-31.82-18.81-57.52l11.81-6.76C128.58,201.58,130.79,201.09,133.2,202.44Z" transform="translate(-1.79)"/><path class="cls-9" d="M367.75,267.41q.13-32.49.29-65c2.4-1.34,4.61-.87,6.72.68l11.8,6.77C409,233.57,392.09,265.63,367.75,267.41Z" transform="translate(-1.79)"/><path class="cls-5" d="M374.76,203.12l-6.72-.68c-9.3-6.46-9.82-15.9-9.74-26.12.3-37.22.12-37.11-37-37.23a29.6,29.6,0,0,0-18.43,5.6c-31.83,22.52-72.74,22.38-104.69.14-14.74-10.25-30.78-6-46.25-3.42-6.61,1.08-9,8.11-9.07,15,0,8.25-.38,16.52.06,24.74.49,9-2.18,16.16-9.7,21.32l-6.72.69c.47-22.21-1.06-44.38,6.48-66.19a118.94,118.94,0,0,1,39.71-55.6c37-29.14,79.28-36,122.7-19.1,41.66,16.25,69,47,77.24,92.79C375.5,171.11,374,187.1,374.76,203.12Z" transform="translate(-1.79)"/><path class="cls-9" d="M247.57,274.14c-3.52,0-7.12.48-10.54-.11-6.48-1.11-9.7-10-4.33-13,8.74-4.83,7.23-11.92,7.24-19.11,0-6-.35-13.47,7.2-13.77,8.62-.33,9.79,6.92,9.47,14.29-.29,6.71-2,13.94,7.11,17.49,3.43,1.34,2.6,6.25,1.71,9.67-.92,3.58-3.92,4.6-7.29,4.63-3.53,0-7,0-10.57,0Z" transform="translate(-1.79)"/><path class="cls-10" d="M230.32,319.39c-8.23-4.25-12.2-11.73-14-20.2-.93-4.31-1.66-10.82,6.76-6.44,18.38,6.48,36.77,6.27,55.17.11,6.6-4,7.46.34,6.76,5.16-1.33,9.15-5.63,16.65-14,21.31-2.48-.17-4.23-1.76-6.13-3.1-11.33-8-17.19-8-28.42,0C234.52,317.57,232.8,319.19,230.32,319.39Z" transform="translate(-1.79)"/><path class="cls-11" d="M230.32,319.39c13-16.38,27.95-16.41,40.65-.06C258.08,329.36,243.31,329.38,230.32,319.39Z" transform="translate(-1.79)"/><path class="cls-12" d="M278.22,292.86c-.86,5.38-4.75,6.83-9.38,6.87q-18.25.15-36.5,0c-4.66,0-8.5-1.57-9.29-7A155.66,155.66,0,0,1,278.22,292.86Z" transform="translate(-1.79)"/><path class="cls-6" d="M203,229.57c-.36,7.08-3.54,11.82-11.33,12.1-7.43.27-12.31-3.42-12.77-10.82-.49-7.85,4-12.95,11.9-13.06C197.9,217.69,202.46,221.8,203,229.57Z" transform="translate(-1.79)"/><path class="cls-6" d="M302.49,241.77c-7.29-.68-11.18-4.78-11-12.3s4.68-11.81,11.9-11.7c7.88.12,12.45,5.15,12,13C315,238.1,310.13,241.75,302.49,241.77Z" transform="translate(-1.79)"/><path class="cls-13" d="M184.67,198.84c5.89,0,11.77-.09,17.66,0,2.87.06,5.79,1,6,4.33s-2.63,4.71-5.53,4.72c-11.77.07-23.55.12-35.3-.28-3.13-.1-6.54-2.27-6.07-5.89.42-3.27,4-3.11,6.79-3.12,5.49,0,11,0,16.48,0Z" transform="translate(-1.79)"/><path class="cls-14" d="M314.7,198.67c5.46,0,10.92,0,16.38,0,2.39,0,5,.24,5.34,3.24a4.84,4.84,0,0,1-4.72,5.63c-12.08.36-24.18.36-36.26.31-2.46,0-4.7-1.47-4.87-4.13-.21-3.5,2.58-4.68,5.41-4.78,6.23-.22,12.48-.07,18.72-.07Z" transform="translate(-1.79)"/><path class="cls-15" d="M249.87,345.2c-4.33,0-8.66,0-13,0-2.82,0-5.88-.17-5.81-4.07.05-3.37,2.63-4.91,5.53-5,9.44-.18,18.89-.19,28.32.05,2.93.07,5.42,1.86,5.26,5.21-.19,3.87-3.4,3.74-6.14,3.79C259.32,345.26,254.6,345.2,249.87,345.2Z" transform="translate(-1.79)"/><path class="cls-16" d="M252.93,142.14a91.65,91.65,0,0,1-50.66-15.95c-4.83-3.22-10.45-8.15-5.57-14.49s9.92-.76,14.09,2.36c24.27,18.18,55.26,18.07,79.63.06,13.33-9.84,28.61-4.77,43.17-4.07a5.63,5.63,0,0,1,4.73,6c-.48,3.94-3.87,7.21-7.15,6.55-22.36-4.5-39.44,9.45-58.68,15.85C265.51,140.77,258.25,143,252.93,142.14Z" transform="translate(-1.79)"/><path class="cls-4" d="M412.67,433.2a246.81,246.81,0,0,1-325.14-1.62c-.22.35,0,1.32-.08,1.83.11,2.12.23,2.48.45,4.42a7.68,7.68,0,0,1,.11,1.71,251.23,251.23,0,0,0,163,60c60.53,0,117.68-22.79,163.31-61.54L413,439.08C412.91,438,412.84,435.13,412.67,433.2Z" transform="translate(-1.79)"/></svg>