<svg id="Capa_1" data-name="Capa 1" xmlns="http://www.w3.org/2000/svg" viewBox="0 0 500 500"><defs><style>.cls-1{fill:#ec6192;}.cls-2{fill:#a87039;}.cls-3{fill:#2f2b7a;}.cls-4{fill:#f6ba8f;}.cls-5{fill:#f5ac7b;}.cls-6{fill:#e0935d;}.cls-7{fill:#f4aa75;}.cls-8{fill:#f4aa76;}.cls-9{fill:#fcf6f5;}.cls-10{fill:#fcf7f6;}.cls-11{fill:#e74848;}.cls-12{fill:#d81e23;}.cls-13{fill:#aa6f3a;}.cls-14{fill:#2f5ea8;}.cls-15{fill:#2d5ea9;}.cls-16{fill:#221831;}.cls-17{fill:#1f1936;}.cls-18{fill:#f7f5f4;}.cls-19{fill:#f9f5f6;}.cls-20{fill:#f6f6f4;}.cls-21{fill:#f8f6f3;}.cls-22{fill:#cb6f46;}.cls-23{fill:#ca6d46;}</style></defs><title>avatar_mujer</title><path class="cls-1" d="M78.94,432.16a235.36,235.36,0,0,1-33.58-38.57A246,246,0,0,1,5.44,302.06,251.41,251.41,0,0,1,28.78,133.4,249.94,249.94,0,0,1,206.89,3.74,253.37,253.37,0,0,1,259.2.15,248.84,248.84,0,0,1,415.57,62.73a250.37,250.37,0,0,1,81.59,149.74A242.1,242.1,0,0,1,499.71,262a249.5,249.5,0,0,1-27.48,102.47A254.41,254.41,0,0,1,432.37,421a6.63,6.63,0,0,1-2.64,2.22c-2.1-.57-2.37-2.56-3.1-4.13A40.88,40.88,0,0,0,419.3,408a19.49,19.49,0,0,0-9.19-5.39c-9-2.49-18-4.95-26.84-7.88-1.73-.58-3.82-.75-4.7-2.82,5.13-10,5.45-20.75,4.8-31.64-.05-.84-.35-1.68-.32-2.52.48-12.67-4.17-24.3-7.05-36.32-1.6-6.64-4.53-12.72-6.63-19.13-1.72-5.26-4.49-10.06-7-15a34.1,34.1,0,0,1-3.73-15.9,100.42,100.42,0,0,1,3.39-26c3.33-12.48,7.46-24.74,10.37-37.32a120.11,120.11,0,0,0,3.15-17.82c.37-4.8,1.05-9.67,1.73-14.49a57.85,57.85,0,0,0-.28-20.24c-.85-4-.95-8.19-1.47-12.28-1.31-10.34-4.53-20-8.57-29.52a106,106,0,0,0-11.34-20.22c-8.7-12.19-19.33-22.22-32.59-29.22A63.86,63.86,0,0,0,304.82,58a16.45,16.45,0,0,1-7.49-3.24c-3.67-2.89-8-4.74-12-7.05a62.93,62.93,0,0,0-16.43-6.53,83.28,83.28,0,0,0-25.53-2.34c-5.19.34-10.26,1.47-15.43,1.67-3.27.13-6.14,1.64-9.17,2.57-16.72,5.2-32.13,12.82-44.3,25.74-4.8,5.1-8.08,11.41-11.39,17.58-3.67,6.85-5.79,14.29-8.3,21.61-2.46,7.16-3.07,14.62-4.74,21.9-2,8.77-4.05,17.51-6.72,26.12a175,175,0,0,1-9.07,22c-2.45,5.22-6.07,9.95-8.35,15.34-5.14,12.16-9.66,24.49-8.95,38,.14,2.76,0,5.52,0,8.29,0,11.18,3.91,20.79,11,29.38,6.48,7.84,13.34,15.39,18.88,24,6.7,10.37,9.11,21.49,6.07,33.64s-8.14,23.84-12.28,35.74c-2.48,7.11-5.17,14.16-6.89,21.51-.55,2.36-1.71,4.58-1.61,7.11.06,1.44-.93,2.29-2.14,2.9a134.93,134.93,0,0,1-23.15,7c-10.83,2.21-17.72,8.51-22,18.3a90.58,90.58,0,0,0-3.6,8.85C80.76,429.58,80.41,431.21,78.94,432.16Z" transform="translate(-0.03 0)"/><path class="cls-2" d="M129.4,393.37a3.18,3.18,0,0,0,2.06-2.77c.66-5.63,2.41-11,4.22-16.37q2.9-8.52,5.9-17c1.34-3.79,2.9-7.51,4.11-11.35,2-6.34,4.81-12.37,6.28-18.94a45.59,45.59,0,0,0,1-15.83c-.87-6.82-3.77-12.93-7.65-18.62-6.15-9-13.59-17-20.35-25.57a40.19,40.19,0,0,1-7.69-17.16c-2.17-10.71-1.84-21.42-.09-32.14a99.85,99.85,0,0,1,12.22-33.32c3.86-6.79,6.77-13.92,10.11-20.9,3.08-6.42,3.73-13.5,6.83-19.85,1-2,1-4.75,1.22-7.13.85-8,3.82-15.6,4.55-23.7.33-3.62,2.08-7.54,3.62-11.15,1.23-2.87,2.21-5.86,3.34-8.76,2.28-5.88,5.79-11,8.8-16.45C172,69,178.08,63.46,184.68,58.57c4.91-3.63,10-7.16,16-9a31.62,31.62,0,0,0,5.13-2.66c5.51-2.94,11.62-3.9,17.28-6.21a11.72,11.72,0,0,1,3.35-.94c8-.73,16-2.46,24.17-2,10.11.54,20,2,29.4,6.31,7,3.25,13.78,6.71,19.89,11.49,1.53,1.2,3.92,1.43,6,1.85A66.29,66.29,0,0,1,327.79,66a102.3,102.3,0,0,1,16.75,12.9c3.36,3.21,6,7,8.92,10.62a83.24,83.24,0,0,1,7.79,11A133.65,133.65,0,0,1,371.46,123c1.74,5,2.68,10.16,4.41,15.13,1,2.93,1.05,6.27,1.33,9.36.94,10.36,2.57,20.68.67,31.25A152.14,152.14,0,0,0,376,194.42c-.46,6.36-2.33,12.58-4,18.77-2,7.54-3.57,15.28-6.31,22.57-2,5.32-3,10.85-4.51,16.23-1.69,6.22-1.7,12.88-1.74,19.44,0,7.16,2.52,13.21,5.74,19.34,3.47,6.62,5.94,13.71,8.65,20.69,1.73,4.46,2.71,9.06,4,13.58s3.07,8.86,3.39,13.57c.14,2,1.07,3.83,1.42,5.82a129.08,129.08,0,0,1,1.44,29.84c-.3,5.08-1.81,9.78-2.86,14.64-.33,1.48-1.49,2.22-2.52,3.09-1.16,1.19-2.47.46-3.54,0-18.88-7.39-37.28-15.67-52.79-29.17-8.83-7.68-16.91-16-22.74-26.27a93.93,93.93,0,0,1-10.13-24.29,8.17,8.17,0,0,1-.48-3.43,8.75,8.75,0,0,1,3.06-3.59c8.43-6.76,15-15.19,21.43-23.76A145.59,145.59,0,0,0,331,250.6c.48-1.14.76-2.47,2.19-2.94,2.57.47,5.17.8,7.75,1.17,1.28.56,2.14,1.69,3.32,2.39a7.17,7.17,0,0,0,9.39-1.53,7.25,7.25,0,0,0-.64-9.24c-.85-.91-2-1.55-2.21-3a114.11,114.11,0,0,0,5-22.58c.92-8.43,1.62-16.87.27-25.33-.49-3.06-1.1-6.11-3.79-8.12-2.26-1.69-3.68-1.19-4.3,1.56-.9,4-1.5,8.13-2.27,12.19-.26,1.41-.23,3-1.74,3.89-1.53-.86-1.17-2.38-1.14-3.67.5-19.34-6.18-36.42-16.45-52.36a192.36,192.36,0,0,0-18.17-23.36c-6.95-7.83-9.1-17.39-9.58-26.28a59,59,0,0,1-.64,7.4,56.94,56.94,0,0,1-5.39,16.58c-2.82,5.37-6.89,9-13,10.32-10,2.16-20,4.07-29.9,6.43-15.42,3.68-30.7,7.81-44.82,15.26-11.45,6-21.48,13.7-27.9,25.32a44.19,44.19,0,0,0-5.51,15.18c-.23,1.61,0,3.46-1.44,4.75-1.66-.22-1.77-1.61-2.12-2.81-.89-2.95-1.38-6-2.11-9-.63-2.6-2-3-4.09-1.35-1.69,1.33-2.33,3.24-2.83,5.22-1.94,7.75-1.36,15.61-.84,23.43a104.68,104.68,0,0,0,4.64,24.65,5.94,5.94,0,0,1,.32,2.51c-.26,1.27-1.39,1.8-2.21,2.6-3.24,3.16-3.26,6.94-.07,10.43,2.33,2.56,6.4,2.6,9.41.09a8.22,8.22,0,0,1,2.3-1.67c2.27-.56,4.61-.22,6.89-.61a2.57,2.57,0,0,1,2.5,1c3.14,5.78,5.45,11.95,8.73,17.69a160.3,160.3,0,0,0,30,37.74c.93.87,2,1.6,2.24,3a76.07,76.07,0,0,1-5.77,18.61,68.46,68.46,0,0,1-4.56,9.35c-6.2,10.84-15,19.51-23.88,28.05-5.34,3.4-9.51,8.16-13.82,12.63-4.68,4.86-6.37,11.46-7.9,17.86a118.32,118.32,0,0,0-3.05,35,193.73,193.73,0,0,0,2.49,21.76c2.14,12.29-4.81,22.85-16.79,26.43a16,16,0,0,1-2.83.22L146,477c-.45-1.45.38-2.53,1.27-3.39,5.31-5.11,4.62-11.22,3-17.48A28.83,28.83,0,0,0,147.7,450a51.71,51.71,0,0,1-5.23-15.28,106.83,106.83,0,0,1-.78-34.84c-3.2,7.2-4.27,14.7-4.95,22.3-.49,5.5-1,11,0,16.48a3.36,3.36,0,0,1,0,.95c-.12,1.14.12,2.58-1.2,3s-2-.9-2.64-1.81c-2.57-3.87-3.82-8.26-4.81-12.73-2.2-9.93-1.12-19.81.65-29.66C129,396.74,129.14,395.05,129.4,393.37Z" transform="translate(-0.03 0)"/><path class="cls-3" d="M322.52,362.19c6.91,5.15,13.64,10.58,21.37,14.55,5.81,3,11.44,6.43,17.5,8.78,5.75,2.23,11.18,5.42,17.38,6.48a118.35,118.35,0,0,0,25.36,7.92c11.87,2.4,19.41,9,23.79,19.94a32.63,32.63,0,0,0,1.81,3.33c-5.57,6.87-12.31,12.55-19,18.19-34.79,29.15-74.58,47.71-119.34,55.11-49.69,8.23-97.69,1.94-143.82-18.35a3.76,3.76,0,0,1-.74-.59,45,45,0,0,0,11.61-6.29c7.11-5.38,8.82-12.74,7.07-21A132.3,132.3,0,0,1,164.35,403a74,74,0,0,1,7.53-24.4,11.8,11.8,0,0,1,2.68-3.36c4.77-4.21,8.62-9.46,14.24-12.72,1.89-.43,3.56.39,5.24,1a178.65,178.65,0,0,0,44,9.72,184.42,184.42,0,0,0,70.79-7.11c3.36-1,6.68-2.12,9.94-3.4A7.24,7.24,0,0,1,322.52,362.19Z" transform="translate(-0.03 0)"/><path class="cls-3" d="M129.4,393.37c1.13.92.82,2.2.55,3.26a81.31,81.31,0,0,0-2.06,15.71c-.54,10.13.69,20,6.3,28.89a1.49,1.49,0,0,0,1.65.94c-.92-15.45-.71-30.83,6.81-45.15-.2,3.06-.36,6.11-.62,9.16a93.52,93.52,0,0,0,.44,21.86c.91,6.07,1.79,12.1,4.25,17.78,1.46,3.38,3.16,6.67,4.37,10.14a23.64,23.64,0,0,1,1.11,10,12,12,0,0,1-4.06,8A10.29,10.29,0,0,0,146,477c-7.3-2.64-14-6.53-20.68-10.38a239.66,239.66,0,0,1-46.33-34.46,101.19,101.19,0,0,1,7.62-18.07c4.23-7.7,10.79-11.72,19.18-13.66A204.62,204.62,0,0,0,129.4,393.37Z" transform="translate(-0.03 0)"/><path class="cls-4" d="M170.21,194.38c.58-10.8,4.83-20.16,11.72-28.27,10-11.76,23.22-18.6,37.37-23.94,18.51-7,37.84-10.89,57.19-14.47,10.22-1.89,15.26-8,18.25-17.12,2-6.16,2.75-12.54,4.17-18.86q.88,5.13,1.75,10.26c1.59,9.45,7.44,16.34,13.49,23.27,10.1,11.57,18.5,24.31,24.05,38.72a84.26,84.26,0,0,1,5.53,34.91c1.37,2.77.32,5.64,0,8.36a169.09,169.09,0,0,1-7.46,34.93c-.72,2.18-1.4,4.45-3.46,5.87a153,153,0,0,1-37.57,55.61c-1.84,1.75-3.82,3.35-5.74,5-.47.45-.54,1.19-1,1.58-7.67,6.05-15.35,11.95-25.39,13.81-10.43,1.93-19.55-1-28.06-6.59-4.49-2.93-9.18-5.72-12.64-10-5-5.17-10.35-10-15-15.45a149.2,149.2,0,0,1-25.65-42c-.9-2.2-3.68-3.21-3.75-6a16,16,0,0,0-1.14-4.28c-3.39-11.27-6.25-22.64-6.9-34.46-.14-2.54-.75-5-.57-7.6C169.44,196.53,169.29,195.32,170.21,194.38Z" transform="translate(-0.03 0)"/><path class="cls-5" d="M322.52,362.19A165.31,165.31,0,0,1,278,373.58,185.24,185.24,0,0,1,204.78,368c-5.42-1.53-10.73-3.39-16-5.42,5-5.32,10.77-10,15.15-15.89,2.7-3.65,5.21-7.46,7.81-11.19,1.52-1,2.61.15,3.74.82,12,7.17,25.1,10.42,39,11s26.86-2.77,39.36-8.49a36.18,36.18,0,0,0,3.31-1.89c1-.6,2.08-1.1,3.25-.31C306.35,346.39,314.16,354.53,322.52,362.19Z" transform="translate(-0.03 0)"/><path class="cls-6" d="M300.42,336.62c-4.18,1.42-7.91,3.8-12,5.47a81.28,81.28,0,0,1-40.53,5.58c-12.45-1.38-24.07-4.94-34.64-11.76a5.89,5.89,0,0,0-1.49-.46,105.13,105.13,0,0,0,10.65-28c5.6,3.55,10.52,8,16.36,11.29,13.79,7.68,27,6.48,39.79-2.18,3.73-2.52,7.32-5.26,11-7.9C291.51,318.63,295.75,327.71,300.42,336.62Z" transform="translate(-0.03 0)"/><path class="cls-7" d="M332.85,248c5.35-11.08,7-23.17,9.46-35,.94-4.61,1-9.4,1.42-14.12,1.93-4.73,1.89-9.89,3.17-14.75.45-1.69-.36-4.38,2.15-4.71,2.87-.37,5,1.32,6.27,4,1.79,3.82,2,8,2.32,12.06A91.68,91.68,0,0,1,357,213.2c-1.05,8.38-2.2,16.77-5.69,24.6-1.87.8-4-.27-5.84.9-2.5,1.61-4.44,3.53-4.15,6.89.1,1.22.45,2.52-.26,3.71A13.89,13.89,0,0,1,332.85,248Z" transform="translate(-0.03 0)"/><path class="cls-8" d="M170.21,194.38c-.42,8.48,1,16.9,2.3,25.14a138,138,0,0,0,5.64,21.22,93.08,93.08,0,0,0,3.58,9.25c-.65-.59-1-1.67-2.27-1.13-2.33,1-4.77.39-7.16.49-.59-.67-.26-1.4-.14-2.12.89-5.39-1.88-8.83-7.37-9.13-.73,0-1.49.19-2.15-.32a125.23,125.23,0,0,1-5.77-43.42,39.13,39.13,0,0,1,1.88-10.24,6.77,6.77,0,0,1,2.49-3.58c3-2.18,4.69-1.59,5.52,2,.77,3.28,1.53,6.57,2.23,9.87C169.17,193.22,169.21,194.06,170.21,194.38Z" transform="translate(-0.03 0)"/><path class="cls-9" d="M341.05,249.3c-.89-3.31-1.45-6.47,1.35-9.37a7.91,7.91,0,0,1,8.9-2.12c2,1.54,4.08,3,4.55,5.79.66,3.88-.79,7-4.21,8.79-3.1,1.63-6.56,1-9.3-1.68C341.89,250.27,341.48,249.77,341.05,249.3Z" transform="translate(-0.03 0)"/><path class="cls-10" d="M162.64,237.78a7.6,7.6,0,0,1,8.65,2.18,8,8,0,0,1,1,9.39c-2.83,3.53-5.53,4.57-9.06,3.57-3.76-1.07-5.08-4.3-5.6-7.44C157,241.87,159.49,239.4,162.64,237.78Z" transform="translate(-0.03 0)"/><path class="cls-11" d="M285.66,269.76c-5.92,11.3-15.19,17.93-28,18.34-13.73.44-24-5.78-30-18.36,1.23-1.09,2.62-.64,3.93-.29A104.69,104.69,0,0,0,260,272.64a98,98,0,0,0,19.52-2.56C281.52,269.63,283.55,268.68,285.66,269.76Z" transform="translate(-0.03 0)"/><path class="cls-12" d="M285.66,269.76c-11.29,2.76-22.71,4.55-34.38,3.77a104.16,104.16,0,0,1-20.81-3.35,23.81,23.81,0,0,0-2.79-.44c-1-1-.23-1.19.58-1.37,9-1.94,17.9-4,27.41-4a114.75,114.75,0,0,1,28.1,3.65C284.35,268.14,286.72,267.44,285.66,269.76Z" transform="translate(-0.03 0)"/><path class="cls-13" d="M190,176.89c3.45-5.72,8.77-8.56,15-9.72,10.9-2,20.94,1.28,30.83,5.29,1.48.6,1.15,1.34.32,2.38-2.87,3.55-6.7,2.89-10.27,2.1-6.72-1.49-13.38-3.22-20.3-3.46A29.28,29.28,0,0,0,190,176.89Z" transform="translate(-0.03 0)"/><path class="cls-13" d="M323.48,176.28c-7.71-3.86-15.7-3.13-23.69-1.79-4,.67-7.84,1.72-11.77,2.58a16.15,16.15,0,0,1-6.64.08c-1.84-.37-3.6-1.61-3.71-3.49-.08-1.5,2-1.61,3.18-2.08,7.66-3,15.52-5.18,23.85-4.45C312.09,167.77,318.72,170.18,323.48,176.28Z" transform="translate(-0.03 0)"/><path class="cls-14" d="M221.64,202.8a19,19,0,0,1-13-.06c-3.11-2-4.18-5.48-2.83-9.35a9.51,9.51,0,0,1,2.88-4.43c4.68-1.54,9.32-1.89,13.88.43a11.78,11.78,0,0,1,2,8.93C224.27,200.24,223.67,202,221.64,202.8Z" transform="translate(-0.03 0)"/><path class="cls-15" d="M305.25,202.66c-4.4,1.94-8.81,1.37-13.23.11-3.27-2.4-4.12-6.16-2.34-10.27.45-1.05,1.41-1.92,1.2-3.22a19.23,19.23,0,0,1,13.94-.46A10.21,10.21,0,0,1,307.7,200C307.24,201.21,306.66,202.33,305.25,202.66Z" transform="translate(-0.03 0)"/><path class="cls-16" d="M222.59,189.85c-4.74-1.62-9.54-1.2-14.35-.38a4.09,4.09,0,0,1-2.52,1.73c-3.25.85-5.14,3.8-8.06,5.14-3.76-.78-6-3-7.12-7.28,4.44,1.81,8.17.35,12-1.1,5.84-2.23,11.82-3.34,18-1.74a17,17,0,0,1,8.9,5.79c.34.41,1.1.87.23,1.51C227.08,192.73,224.52,191.9,222.59,189.85Z" transform="translate(-0.03 0)"/><path class="cls-17" d="M305,189.57a25.59,25.59,0,0,0-14.2.38,8.16,8.16,0,0,1-5.88,2.87c-.14-1.37-.15-1.39.77-2.27,4.81-4.66,10.68-5.63,17-4.82a33,33,0,0,1,8.56,2.22c3.75,1.55,7.5,2.9,12.05,1.06-1.28,4.29-3.51,6.66-7.46,7.25C312.68,193.28,308.67,191.68,305,189.57Z" transform="translate(-0.03 0)"/><path class="cls-18" d="M305,189.57c4.32,1.1,8.41,2.56,10.87,6.69-2.31,4.17-6.19,5.73-10.6,6.4C308.58,198.22,308.22,193.87,305,189.57Z" transform="translate(-0.03 0)"/><path class="cls-19" d="M197.66,196.34c2.5-3.88,6.44-5.53,10.58-6.87.26.56,0,.95-.34,1.41-2.8,4.12-2.27,8.07.71,11.86A14.62,14.62,0,0,1,197.66,196.34Z" transform="translate(-0.03 0)"/><path class="cls-20" d="M222.59,189.85c2.53.88,5.06,1.78,7.07,3.67,3,3.41,2.9,3.35-1,6.28-2.13,1.62-4.29,3-7.06,3,2.88-3.85,3.46-7.82.65-12C222,190.34,222.19,190.08,222.59,189.85Z" transform="translate(-0.03 0)"/><path class="cls-21" d="M284.9,192.82a20.46,20.46,0,0,1,5.88-2.87c.45.14,1.18.13.63.91-2.89,4.14-2.18,8.07.61,11.91-3.92-.19-6.76-2.4-9.44-5a1.49,1.49,0,0,1,0-2.42C283.38,194.53,284.13,193.67,284.9,192.82Z" transform="translate(-0.03 0)"/><path class="cls-22" d="M254,246.4c-2.89-.88-5.82.12-8.6-.61-1.26-.33-2.77-.67-2.82-2.1-.05-1.69,1.67-2.14,3-2.28C249.52,241,251.82,243.63,254,246.4Z" transform="translate(-0.03 0)"/><path class="cls-23" d="M259.84,246.8c2.3-4.26,6.64-6,10-4,.67.39,1.73.73,1.51,1.77a2.13,2.13,0,0,1-1.81,1.56c-1,.19-2.15.65-3.08.41A13.55,13.55,0,0,0,259.84,246.8Z" transform="translate(-0.03 0)"/></svg>