<svg id="Capa_1" data-name="Capa 1" xmlns="http://www.w3.org/2000/svg" viewBox="0 0 315.87 378.82"><defs><style>.cls-1{fill:#496e67;}.cls-2{fill:#4e6857;}.cls-3{fill:#944a63;}.cls-4{fill:#4c6e62;}.cls-5{fill:#4c695f;}.cls-6{fill:#516665;}.cls-7{fill:#5a6658;}.cls-8{fill:#4d6b5a;}.cls-9{fill:#4b6761;}.cls-10{fill:#779891;}.cls-11{fill:#eff8f6;}.cls-12{fill:#e3f0ee;}.cls-13{fill:#51716a;}.cls-14{fill:#52706b;}.cls-15{fill:#b1cbcc;}.cls-16{fill:#94c3bb;}.cls-17{fill:#688c86;}.cls-18{fill:#cad597;}.cls-19{fill:#9fcbc6;}.cls-20{fill:#95c4bc;}.cls-21{fill:#739c93;}.cls-22{fill:#729c94;}.cls-23{fill:#7fada4;}.cls-24{fill:#456d5b;}.cls-25{fill:#96c1ba;}.cls-26{fill:#a0cec5;}.cls-27{fill:#95c3bc;}.cls-28{fill:#96c4bd;}.cls-29{fill:#add7cf;}.cls-30{fill:#b2ded5;}.cls-31{fill:#aed7cf;}.cls-32{fill:#9fcec5;}.cls-33{fill:#aed7d0;}.cls-34{fill:#678d87;}.cls-35{fill:#b6dfd7;}.cls-36{fill:#527771;}.cls-37{fill:#c9d994;}.cls-38{fill:#616e6e;}.cls-39{fill:#cccea3;}.cls-40{fill:#a5cec7;}.cls-41{fill:#98b65f;}.cls-42{fill:#d0cd66;}.cls-43{fill:#a3bfa4;}.cls-44{fill:#c8e1c7;}.cls-45{fill:#bdba57;}.cls-46{fill:#d5d473;}.cls-47{fill:#bdba58;}.cls-48{fill:#91b194;}.cls-49{fill:#d0cd65;}.cls-50{fill:#96c0ba;}.cls-51{fill:#bdd2c1;}.cls-52{fill:#b2c7b5;}.cls-53{fill:#a1cdc7;}.cls-54{fill:#bdb959;}.cls-55{fill:#95c0b9;}.cls-56{fill:#92b094;}.cls-57{fill:#b0c8b5;}.cls-58{fill:#90b195;}.cls-59{fill:#a8a752;}.cls-60{fill:#9dbe66;}.cls-61{fill:#aec47f;}.cls-62{fill:#f2faf7;}.cls-63{fill:#dadb7a;}.cls-64{fill:#507871;}.cls-65{fill:#9dbb6d;}.cls-66{fill:#d3d579;}.cls-67{fill:#567a69;}.cls-68{fill:#90af9a;}.cls-69{fill:#e7e391;}.cls-70{fill:#8caf98;}.cls-71{fill:#ebf6f4;}.cls-72{fill:#c0cf9a;}.cls-73{fill:#5c7452;}.cls-74{fill:#4f7870;}.cls-75{fill:#d7f0ec;}.cls-76{fill:#e7aabb;}.cls-77{fill:#e6aabb;}.cls-78{fill:#f5bccf;}.cls-79{fill:#e99cb5;}.cls-80{fill:#c7e1c8;}.cls-81{fill:#92b193;}.cls-82{fill:#a3c0a5;}.cls-83{fill:#f6b1ba;}.cls-84{fill:#f4b2c8;}.cls-85{fill:#f7b1bd;}.cls-86{fill:#bd808a;}.cls-87{fill:#a5b9a5;}.cls-88{fill:#f3b2c5;}.cls-89{fill:#f5bcd1;}.cls-90{fill:#f5bdd0;}.cls-91{fill:#d3819d;}.cls-92{fill:#d48da5;}.cls-93{fill:#4b7269;}.cls-94{fill:#4d6e62;}.cls-95{fill:#d58da4;}.cls-96{fill:#d3819c;}.cls-97{fill:#7a9b81;}.cls-98{fill:#92b092;}.cls-99{fill:#ccd596;}.cls-100{fill:#e7abbc;}.cls-101{fill:#7b987f;}.cls-102{fill:#d48aa2;}.cls-103{fill:#d68ca4;}.cls-104{fill:#f6c1d1;}.cls-105{fill:#96c4bc;}.cls-106{fill:#5c7e66;}.cls-107{fill:#486351;}.cls-108{fill:#76686c;}.cls-109{fill:#d28ea5;}.cls-110{fill:#95516b;}.cls-111{fill:#eaacc1;}.cls-112{fill:#afd2b1;}.cls-113{fill:#7a9a7d;}.cls-114{fill:#f07f82;}.cls-115{fill:#f38789;}.cls-116{fill:#7a9a80;}.cls-117{fill:#80aea4;}.cls-118{fill:#f2888a;}.cls-119{fill:#ee8083;}.cls-120{fill:#afc8b5;}.cls-121{fill:#e67475;}.cls-122{fill:#799a7e;}.cls-123{fill:#99bca3;}.cls-124{fill:#bd7f80;}.cls-125{fill:#6e8043;}.cls-126{fill:#afc580;}.cls-127{fill:#9ebd65;}.cls-128{fill:#b4cd75;}.cls-129{fill:#adc580;}.cls-130{fill:#aec480;}.cls-131{fill:#c7dd8b;}.cls-132{fill:#b1d075;}.cls-133{fill:#c5df92;}.cls-134{fill:#c6dc92;}.cls-135{fill:#beda99;}.cls-136{fill:#edfaf9;}.cls-137{fill:#98b76f;}.cls-138{fill:#e1f7ee;}.cls-139{fill:#c3e09f;}.cls-140{fill:#c8cd6c;}.cls-141{fill:#c0a5bd;}.cls-142{fill:#bca3be;}.cls-143{fill:#bdabb8;}.cls-144{fill:#b7a4ba;}.cls-145{fill:#ee888f;}.cls-146{fill:#9ebd67;}.cls-147{fill:#aec681;}.cls-148{fill:#dbf4ef;}.cls-149{fill:#729c93;}.cls-150{fill:#93c4bc;}.cls-151{fill:#739c94;}.cls-152{fill:#b0ddd5;}.cls-153{fill:#aec57b;}.cls-154{fill:#446e68;}.cls-155{fill:#4a746d;}.cls-156{fill:#447069;}.cls-157{fill:#436b66;}.cls-158{fill:#507d75;}.cls-159{fill:#d2ce65;}.cls-160{fill:#ef8889;}.cls-161{fill:#a39497;}.cls-162{fill:#66928c;}.cls-163{fill:#b7e3d7;}.cls-164{fill:#63928a;}.cls-165{fill:#51746b;}.cls-166{fill:#628882;}.cls-167{fill:#557d7a;}.cls-168{fill:#719a93;}.cls-169{fill:#46726a;}.cls-170{fill:#b2dbd5;}.cls-171{fill:#76a299;}.cls-172{fill:#7ea79f;}.cls-173{fill:#e5dc87;}.cls-174{fill:#64805b;}.cls-175{fill:#6d7d59;}.cls-176{fill:#6f9a93;}.cls-177{fill:#954762;}.cls-178{fill:#6a8e84;}.cls-179{fill:#656f6e;}.cls-180{fill:#e6f3f5;}.cls-181{fill:#e8abbd;}</style></defs><title>rosa_defecto</title><path class="cls-1" d="M306.61,251c.92,11.64.54,23.29.17,34.93-.36,11.48-1.32,22.94-1.44,34.42-.1,8.68-3.3,15.77-8.92,22.06-7.57,8.46-16.26,15.73-24.72,23.24a190.85,190.85,0,0,0-18.2,17.77c-3.17,3.66-6.79,5.18-11.74,5.13-24.63-.3-49.27-.69-73.9.19-7.41.27-13.55-1.15-18.69-7.74-7.37-9.45-17.77-16-26.5-24.18-5.21-4.9-10.37-9.83-15.11-15.23a33.52,33.52,0,0,1-8.4-22.33c-.42-23-2-45.9-1.12-68.88.08-1.81-.28-3.69,1.07-5.23a147.54,147.54,0,0,1,14.83-4.27c2.15-.51,4-1.1,5.55-2.73,1-.69,1.85-.28,2.61.46.41.85.59,1.83,2.06,1.35,7.07-2.33,14.14-4.63,21-9.16a87.4,87.4,0,0,1-8.89-4.78c-2.15-1.46-3.68-.27-5.14,1.34-1.76,1.94-2.53,4.73-5.14,5.92a1.28,1.28,0,0,1-1.22-.46c-.72-3.28,1.81-5.12,3.24-7.49-1-.29-2.12.54-3.22.15-1.91-.89-4.44-1.2-4-4.27.41-.55,1.1-1.12,1.63-.88,5.6,2.58,7.78-1.16,10.17-5.1,1.05-1.72,0-2.32-.7-3.35-1.67-2.53-4.58-4.39-4.42-8a2.17,2.17,0,0,1,.81-1.1c3.22.33,3.83,3.4,5.48,5.34,2.36,2.75,4.73,5.13,8.85,4.41,2.62-.46,3.92-1.46,3.07-4.35a25,25,0,0,1-.84-8.91c1.26-3.74,2.93-6.67,7.67-4.25,1.69.87,2.81-1.54,4.52-1,.66,3.3,1,6.55,3,9.61s3.54,3.62,6.09,1a2.52,2.52,0,0,1,1.79-.77,5.78,5.78,0,0,1,2.77,3.2,1.93,1.93,0,0,1-.57,1.95c-2.52.68-5.11,1.11-7.37,2.63-1,.71-2.27,1.51-3.58.33-.95-4.49-2.67-8.59-6.33-11.57-1.93-1.57-3.35-1.55-3.4,1.46,0,1.34-.06,2.67,0,4,.25,5.74,1.65,6.82,7.48,5.74a2.2,2.2,0,0,1,2.3.44c.54,2.95-2.17,4.68-2.74,7.24-.5,2.29-1.58,4.89.51,6.52s5.07,1.2,7.49-.17c4-2.26,5.71-5.75,5.39-10.36-.15-2.07-1.32-4.22.18-6.26a1.28,1.28,0,0,1,1.39-.24c2,4.78,5.76,6.57,10.81,6.44a8.12,8.12,0,0,1,4.69,1.38,2.08,2.08,0,0,1,.63,2.09,2.29,2.29,0,0,1-1.08,1c-2.76.62-5.1-1.24-7.75-1.31-1.8,0-3.77-.43-4.9,1.5-1,1.67.13,3.09.66,4.66,1.54,4.53,5.46,7.76,6.68,12.43-1.72,1.3-1.62,3-1.29,4.9.73,4.2-.37,7.83-3.81,10.59a1.89,1.89,0,0,1-3-.07c-.7-.71-.95-1.8-1.67-2.42-2.29-2-3.82-6.23-7.74-4.18s-5.33,7.65-3.48,11.47c.69,1.44,2,2.73,1.14,4.56-5.52.1-7.84,3.14-8.77,8.39-.81,4.54-3,8.75-4.9,13-.74,1.67-1.64,3.5-3.89,3.18-2-.29-2.87-2.06-3.43-3.85-.65-2.09-.46-4.26-.54-6.41,0-1.52,0-3.05,0-4.57a21,21,0,0,0-.5-2.94c-1.07-6.57-4.59-8.26-10.48-4.79a95.26,95.26,0,0,0-12.06,8,11.83,11.83,0,0,1-2.66,1.62c-4.71.27-5.59-.94-4.53-5.84.38-1.79,2.7-4.36-1.25-5-3.48-.54-4.63,1.4-4.72,4.68A233.55,233.55,0,0,0,105,298.11a14.59,14.59,0,0,1,.11,2.56c.11,2.3,1.84,2.5,3.53,2.68a46.07,46.07,0,0,0,5,.11H286.36a38.62,38.62,0,0,0,9-.64c-10.11-.23-20.23-.13-30.35-.26-2.51,0-5.44.72-7.1-2.24,1.84-2.35,4.49-1.45,6.85-1.67,5.65-.54,11.47,1.16,17-1.22,4.35-1.5,8.85-.8,13.28-.81,3.93,0,5.79-1.43,5.64-5.54a124.79,124.79,0,0,1,.79-17.81c.42-3.92.11-8-2.52-11.33-1-1.49-2.88-2.64-2.13-4.9,3-1.14,5.38-2.88,6.13-6.24A2.83,2.83,0,0,1,306.61,251Z" transform="translate(-40.38 -9.94)"/><path class="cls-2" d="M78.94,176.52c.25-8.86,4.5-15.9,10.71-21.68,2.2-2,2.24-3.4,1.32-5.81-1.63-4.25-3.06-8.59-2.54-14.1,6.4,7.59,15.21,6.81,23.79,9.25-2-9.51-5.25-17.49-13.24-22.81-1-.68-3-.65-2.68-2.37s2.09-1.82,3.61-2c13.79-1.57,26.19,2.47,37.87,9.36,1.56.91,2.93,2.14,4.76,3.49,2.74-6.15,4.8-12,3-18.63-.28-1-1-2.4.46-3,1.24-.53,2.25.52,3,1.38,3.08,3.68,6.07,7.44,9.41,11.56a44.06,44.06,0,0,0,4.87-15.08c1.4-.14,1.58.93,1.89,1.88.7,6.12-3.26,11.29-3.52,17.09a60.71,60.71,0,0,1,7.41-6.37,1.54,1.54,0,0,1,1.36.26c4.28-.29,7.51-3.33,11.51-4.41,1.94-.53,1.37-2.39,1.39-3.82.25-17,.42-33.92,1.85-50.83C186,48.71,188.56,38,194.3,28.14c4.75-8.15,11.66-13.5,20.24-16.9,6.7-2.66,9.61-1.39,12.75,5.1s4.19,13.23,5.25,20.12c2,12.95,3.9,25.93,3.62,39.1.1,3.91,1.72,7.93-.82,11.66-3-4.92-2.45-10.53-2.61-15.85-.21-6.64-1-13.2-1.58-19.78-1-9.58-2.4-19.1-5.13-28.37a13.13,13.13,0,0,0-5.4-10c.13,2.49,1,4.46,1.45,6.49.48,3.07,1.59,6.06,1.13,9.24-.25,1-.59,2-1.76,2.28-3.43-3.85-2.38-9.1-4.33-13.38-2.41,2.93-1.15,7.45-4,10.33a1.7,1.7,0,0,1-1.78-1.11c-1-2.58-.37-5,.88-7.4.06-.64-1,.05-.35,0,.32,0,.42.12.24.42-3.59,5.93-7.54,11.63-9.29,18.53a147.92,147.92,0,0,0-2.9,18.1c-1.33,16.51-2.46,33-2.6,49.61,0,4,5.59,6,2.93,9.51-2.4,3.14-2.64,6.27-2.76,9.73-.17,1.34-.33,2.69-1.55,3.57-3-.84-1.67-3.41-2.07-5.28-.23-1.06.43-2.57-1-3-1.26-.38-2,.87-2.87,1.61a7.57,7.57,0,0,0-2.65,6.17c0,1.79,0,3.21,2.63,3,3.59-.28,3.16,2.08,2.2,4.3s-2.59,4.2-2.77,7c2.22-.84,3.26-3.52,5.86-3.34a1.76,1.76,0,0,1,1.32,1.55,2.29,2.29,0,0,1-.73,1.8c-6.08,4-8.26,10.05-8.46,17.36,1.41.3,3.47-2,5,.08s.9,4.25.14,6.22c-1.64,4.23-1.12,9.31-4.92,12.69a1.64,1.64,0,0,1-1.1-.83c-.84-2.38.31-4.54.74-6.78s1.65-4.31,1.61-7.07c-2.27.57-3.72,2.14-5.4,3.32-1.28.91-2.48,2.45-4.33,1,5-9.29,3.53-19.94,6.51-30-2.14-.06-3.47,1.28-5,1.87-5.56,2.36-10.42,5.86-15.33,9.3-6.24,4.37-6.43,4.9-3.74,11.77,1.38,5.55,5.21,10.31,5.24,16.29a1.52,1.52,0,0,1-1.79,1.09c-4.39-5.62-5.32-12.72-8.15-19-.93-2.08-2.1-4.21-1.06-6.64,1-1.28,1.36-3.18,2.86-4,6-3.34,4.71-8.36,3.35-13.49-1.87-7.12-6.07-12.87-10.72-18.36a13.32,13.32,0,0,1-2.46-3.91c1.22,5.42-.17,9.37-1.46,13.34a12.93,12.93,0,0,1-.44,1.33c-2.52,6.51-5.25,12.94-7.62,19.51-1.28,3.55-.8,6.45,2,9a32.56,32.56,0,0,1,6.32,7.66,84.61,84.61,0,0,0,3.53-8.91c.66-1.72,1.4-3.49,3.15-4.34,1.55-.75,2.71-.59,1.85,1.63-1.91,5.31-3.56,10.71-5.8,15.89-.84,1.92-1.33,4.27-4.13,4.38-3.75-11.15-11.84-18-22.33-22.47-5.55-2.34-11.56-3-17.35-4.43a95.73,95.73,0,0,1-14.37-4.44,87.19,87.19,0,0,0,5.57,15.46A3.7,3.7,0,0,0,101,160c4.24.16,5.1,3,5.18,6.48.16,6.51.17,6.55,6,4.48,1.59-.56,3.06-.66,4,.78,1.33,2,3.47,3.07,5.08,4.82.17-1.57-.69-3.3.69-4.66a1.44,1.44,0,0,1,1.43.16c1.6,2.67,3,5.4,2.18,8.67-3.72,2.47-6-1.47-9.45-2-.39,1.54.38,3.33-.22,4.94a24.88,24.88,0,0,0-1.41,6,2,2,0,0,1-1,1c-3,.71-5.49-.9-8.14-1.73a49.35,49.35,0,0,0-12.63-2.7c.19,1.36,1.42,2.56.83,3.91-.89,1.72-1.8,3.37-4,1.49-4.08-8.1.53-15,3.08-22.2.9-2.52,3.35-4.58,2.47-7.56-2.48,8.06-5.36,15.84-13.06,20.65a1.66,1.66,0,0,1-1.47-1.35c.16-2.14,1.69-3.51,2.83-5.12,3.75-5.31,6.8-10.92,7.39-18.43a35.43,35.43,0,0,0-9.41,18.73c-.28,1.73.25,4-2.26,4.71C78,179.6,78.69,178.05,78.94,176.52Z" transform="translate(-40.38 -9.94)"/><path class="cls-3" d="M297.15,257.29c.59,1.21,1.19,2.42,1.78,3.62-2.07,1.75-4.1,3.6-7.16,2.68-1.6-1-.71-2.22.27-2.65,3.17-1.4.55-2.6,0-3.87a36,36,0,0,0-13-15.92,8.18,8.18,0,0,0-9.23-.71,24.36,24.36,0,0,1-17.38,2c-5.07-1.33-5.1-1.25-4.6,4.14a9.27,9.27,0,0,1,0,1.49c.61,9.68,9.46,17.9,20,18.62a37.75,37.75,0,0,0,17-2.91c2-.82,4.15-2.48,6.46-.5.64,2.34-1.35,2.72-2.69,3.49-4.24,2.42-8.94,3.41-13.68,4.24-3.15.72-6.41.12-9.57.74-6.81-1.44-12.29-5.22-17.28-9.88-.51-1.65-1.78-2.91-2.44-4.48-1.27-3.27-2.87-3.62-6.43-2.3-12.31,4.59-24,3.42-34.31-5.59a3.49,3.49,0,0,1,0-4.4,1.67,1.67,0,0,1,1.5-.24,9.67,9.67,0,0,1,2.55,1.69c7,6.46,15.59,7.08,24.38,5.81,4.29-.61,8.21-2.54,9.35-8.37-9.31,5.12-18.37,7-27.84,2.29a2.23,2.23,0,0,1-.17-2.11c2.05-1.71,4.14-.38,6.13,0A24.83,24.83,0,0,0,239,241.06c2.23-1.3,3.3-2.84.92-5a6.37,6.37,0,0,1-1.57-1.91c-2.67-5.62-7.26-8.73-13.14-10.21a2.55,2.55,0,0,1-.76-2,2.09,2.09,0,0,1,.73-1.21,3.45,3.45,0,0,1,1.39-.15,11.44,11.44,0,0,1,3.8,1.2c-.64-.71-1.59-1-1.85-2a2.31,2.31,0,0,1,.41-2c4.91-.69,9.18,3,14.5,1.77a45.68,45.68,0,0,1-14.26-10.1,33.48,33.48,0,0,1-8.65-15c-1.71,2.14-.77,5.23-3.19,6.72A1.64,1.64,0,0,1,216,201a2.67,2.67,0,0,1-.89-2.7c1.92-4.68,0-8.06-3.39-11.07.2-1.28.7-2.3,2.16-2.5,1.62.47,2.47,2.24,4.64,2.6-.26-3.85-2.87-7-2.67-10.8a5.23,5.23,0,0,1,.92-3.46c2-.62,2.12,1.08,2.45,2.22.64,2.24,1.4,4.42,2.16,6.62,1.44,4.17,4.15,6.34,8.62,5.8,2.81-.35,5.92,2,8.17.28s1.54-5.25,2.38-7.93c2.89-9.22,2.8-9.42-6-13.07-4.48-1.84-8.51-4.47-12.67-6.88-2.34-1.36-3.24-.73-3.45,1.85-.2,2.42.53,5-1.26,7.19a2.41,2.41,0,0,1-2.68-1.28,10.89,10.89,0,0,1-.35-6.51c.06-.32.15-.64.24-1,2-6.72,2.6-7,9.47-4.58a18,18,0,0,1,3,2.06c3.89,2.33,7.49,5.24,12.16,6a6.33,6.33,0,0,1,1.91.59c1.23.84,2.17,2.07,3.53,2.71,2.43.65,2.87-2.23,4.7-2.63a1.93,1.93,0,0,1,1.92.51c.64,1.84-.5,3.19-1.29,4.63a53,53,0,0,0-6.25,16.23c-.61,2.58-.74,5.09,1,7.6,3.72,5.31,4.93,5.64,10.24,1.77,1.46-1.07,2.9-2.33,5-1.6,1.31,2.71-1.35,3.28-2.58,4.47-1.63,1.59-1.78,2.84-.25,4.63,2.23,2.62,4.05,5.7,8.19,5.33.31,2.56-1.93,3.28-3.39,4.39-3.8,2.86-7.11,6.22-10.74,9.37a18.29,18.29,0,0,0,21.42-.44c1.44-1.11,2.51-3.28,5-2.22-.53,5.44.32,6.42,6.24,6.48,6.41.07,11.38-3.19,15.82-7.39,2.13-2,1-3.32-1.34-3.59-6.34-.72-12.6-.79-18.07,3.34-.89.68-1.74,1.64-3.07.9-1.17-1.89.17-3.43.73-5.06,1.6-4.63-.09-6.68-5.09-6.45-2.52.11-4.88,2.23-7.52.58-.41-2,1.16-2.55,2.38-3.29a4.62,4.62,0,0,0,2.29-3.57c1-6.88-.36-8.15-7.27-6.64a3.37,3.37,0,0,1-1.94-.07c-1.41-2.42.66-3.31,2.11-3.83,4.53-1.61,4.44-4.51,2.7-8.08-1.84-4.23-5.21-7.22-8.32-10.43-2.18-2.24-4.82-4.11-6-7.16a1.57,1.57,0,0,1-.12-1.92c3-.77,4.08,2.67,6.61,2.91a4.84,4.84,0,0,1,1.71,1.19c1.57,3,4.24,5,6.26,7.67,4.52,5.9,5.21,13.49,9,19.69a25.48,25.48,0,0,1-.86,3.85c-.52,3,0,5.21,3.53,5.77,2.2.35,4.38,1.53,4.92,3.7.84,3.37,2.83,3.52,5.5,2.91,5.61-1.29,11.16-.58,16.59.91,1.58.44,2.91-.35,4.36-.08,1.91,2.19-.33,3.15-1.43,4.23-2.08,2-1.28,3,1,3.77,3.3,1,10.71-4.7,10.33-8.05-.2-1.84-1.72-1-2.72-1.22-2.05-.52-4.2,2.56-6.18-.18.9-4.13,4.07-7.14,5.41-11.08,2.2-6.49,1.54-7.52-5.25-7.6-9.95-.12-19.89-.23-29.63,2.25a5.48,5.48,0,0,1-3.42,0c-1.54-2.26.53-2.77,1.81-3.39a23.17,23.17,0,0,1,8.13-2.22c3.94-.31,5.22-2.7,5.05-6a40.35,40.35,0,0,0-8.32-23.07c-1.83-2.39-4.08-2.47-6.67-1.5-4.72,1.78-8.83,4.58-12.88,7.5-1.32,1-2.43,2.32-4.25,2.4a1.84,1.84,0,0,1-1-1.77c1.17-3.33,4.28-4.73,6.7-6.81a14,14,0,0,1,1.57-1.18c.88-.54,1.85-.94,2.7-1.54.85-.37,1.37-1.71,2.63-.91,1,.83,1.88,0,2.73-.25,7.33-2.35,8.66-1.87,12.75,4.67,2.29,3.65,4.6,7.49,5.1,11.66.66,5.55,3.17,7.64,8.46,6.92a1.11,1.11,0,0,1-.19,1.29c-1.73,1.45-5.48.08-5.52,3.89,0,1.63-.37,3.75,1.79,4.12,2.89.5,6.13,1.3,8.6-.87,1.58-1.38.91-3.37-.43-4.92a7.23,7.23,0,0,1-1.51-2,1.31,1.31,0,0,1,.67-1.21c2.78-.94,5.42-.46,5.49,2.76.1,5,2.94,6.37,7.1,6.69,3.36-.07,2.1,2.5,2.26,4.13s-1.17,3.92,1.62,4.76a5.83,5.83,0,0,1-1.39,2.26c-1.36,2-1.85,4.43-3,6.68,2.53.93,5.7-1,7.08,2.31a2.31,2.31,0,0,1-.62,2c-2.73,4.08-4.86,8.61-9.24,11.92,4,1.49,7.53,1.65,11-.07,1-.5,2.28-1.51,3.11-.43.54.7.32,2.22,0,3.27-2.6,10.07-9.33,17-17.51,22.81-1.41,1-3.56,1.26-3.91,3.48l-3.78.27c-2,2.43-4.94,1.86-7.72,2C295.86,254.76,297.14,255.71,297.15,257.29Z" transform="translate(-40.38 -9.94)"/><path class="cls-4" d="M259.13,167.07,257,167c-1.79-2.11-1.48-4.68-1.49-7.14,0-12.28.32-24.57-.11-36.83s-.7-24.49.05-36.74c.11-1.79.46-3.68-.95-5.19a5.75,5.75,0,0,0-1.25-.88c-2.43-1.28-3.24.73-4.22,2.18-2.76,4.07-3.86,8.74-4.72,13.51-.46,2.55-.33,5.34-2.45,7.36-1.23-.12-1.58-1-1.88-2a38.44,38.44,0,0,1,4.66-20c-5.7,4.88-6.91,12.33-6.34,20.45a22.77,22.77,0,0,1-.46,8.42c-.51,1.25-1.7,1.76-2.68,2.49-.9,1.64.27,2.88.81,4.21,5.91,14.52,6.57,29.78,6.36,45.16a4,4,0,0,1-1.27,3.14l-1.59-.09c-2.64-1.73-1.74-4.48-1.77-6.83-.15-11.66-.85-23.26-3.72-34.63a31.43,31.43,0,0,0-5.48-11.35c-2.16,3,.29,7-3,9-1.86-.65-1.64-2.51-2.26-3.88a9.36,9.36,0,0,1,.18-6c-3.91,5.09-5.79,11.21-6.65,17.72-.06,7.91-1.17,15.77-.67,23.68A27.65,27.65,0,0,1,215,161q0,3.5.07,7c1.56,2.88,1.91,5.67-.6,8.24-3.1-3-2.46-7.21-2.57-10.77-.34-11.8-1-23.63.59-35.42a61.88,61.88,0,0,1,4.34-15.53c-4.4,8.48-6.59,16.83-6.31,25.66.32,10.51-1.59,20.92-1.11,31.44.14,3,.51,5.61,3.51,7.07a1.36,1.36,0,0,1,.17,1.56,4.53,4.53,0,0,1-3.21,1.1c-6.47-.27-12.8.89-19.16,1.69a3.76,3.76,0,0,1-1.45-.55c-1.05-1.91.72-2.22,1.72-2.78a26.65,26.65,0,0,0,4.47-3.11,7.35,7.35,0,0,0,1.88-2.05c8.33-12.34,9.5-26,7.93-40.57-3.88,1.73-4.36,7.29-9.25,7l-1-.91c-1.4-3.69-2.38-7.38.17-11,1.08-.83.81-2.08,1-3.19,3.84,2.33,1.62,5.81,2,8.58,2.86-2.74,5.56-6.25,8.43-9.51s3.08-8.32,2.78-12.85c-.94-14.56-1.16-29.14-1.75-43.73-.48-12.26.47-24.45,1.77-36.61.2-1.86.08-4.12,2.5-4.95l.88,1.27c1.75,1.64,1.08,3.75.85,5.62-1.54,12.85-.85,25.76-1,38.64-1,12.27,1.76,24.44.67,37.49,3.55-2.32,6.27-4.65,9.65-5.78a2.55,2.55,0,0,0,1.86-2.67c-.69-8.25.81-16.58-.84-24.8-.53-13.69-1.82-27.31-3.61-40.89-.22-1.61-.58-3.31.9-4.62l.89-2.13c2.75.78,2.43,3.3,2.78,5.26a230.25,230.25,0,0,1,2.56,24.14c.48,6.74,1.65,13.47,1,20.26.59,7.12,1.31,14.23,1.09,21.4a5.53,5.53,0,0,0,3.72,5.9c.69-4,.13-7.92.35-11.76.15-2.43-.56-5.06,1.52-7.07,2-3.68.28-7.67,1-11.46,1.15,3,.4,6.25,1.08,10.37,3.54-4.56,6-9.36,10.88-11.67,1.57-.74.13-2.05,0-3.06-1.91-11-1.76-21.81,1.87-32.43,1.63-4.77,2.62-4.71,6.21-1.24,1.61,1.55,1,5.62,4.89,4.66a3,3,0,0,1,.93,1.33,6.85,6.85,0,0,1-.61,5.54,2.1,2.1,0,0,1-1.49.43c-3.66-2.68-3.59-7.82-6.86-10.28-2.75,8.14-2.86,16.91-2.62,25.72.1,3.43.65,6.63,3.62,8.85,1.23.67,2.22,1.8,3.74,1.89,3,.91,6.23.1,9.24,1a2.49,2.49,0,0,1,.75,1.93c-.39,2.13.88,2.91,2.65,3.5a26.28,26.28,0,0,0,10.75,1.67c2.58-.16,5.32.57,7.58-1.34,1.15-2.56-1.17-3.43-2.36-4.83S283,76.09,282.55,74a2.27,2.27,0,0,1,.5-1.29c3.43-.31,6.61-2,10.14-1.85a.94.94,0,0,1,0,1.28c-3,2.35-4.26,4.45-.68,7.8,3,2.8,1.93,5.14-2.39,6.08-7,1.51-14.07,1.92-21.33-1.21,5.27,23.6,3.32,47,3.34,70.28l-1.91,1.82c-2-1.84-1.47-4.3-1.47-6.56q0-22.65-.13-45.3A50.68,50.68,0,0,0,265,86a126.58,126.58,0,0,1,3.42,35.16c-.38,1.35-.28,3.13-2.5,2.87-2.19-5-1.59-10.4-2.24-15.62-.94-7.57-1.69-15.16-3.84-22.57.05,10.11-.54,20.19.26,30.31,1.19,14.92.39,29.89.4,44.83a7.42,7.42,0,0,1-1.45,4.19l.09,2Z" transform="translate(-40.38 -9.94)"/><path class="cls-5" d="M90,191c1.81,2.17,2-.9,3.14-1,1.89-1,2.69.07,3.25,1.64-.94,2.38-1.15,4.58,1.83,6,.73-1.21-1.49-2.84.18-4,4,0,6.51,3.06,9.28,5.15,4.58,3.46,9.6,3,14.69,3,1.87,0,2.08-1.26,2.11-2.68a1.54,1.54,0,0,1,1.55-1.3c1.92,1.19,3.14,2.67,2.08,5.09l-.12,1.28c-4.14,2.48-8.74,1.54-13,1.23a160.42,160.42,0,0,0-22.14-.21l-.89,0A2.52,2.52,0,0,1,90,203a11,11,0,0,1,3.86-1.24c-1.69-.46-2.63.69-3.76,1.32-6,3.41-10,9-15.42,13.13-5.18,3.95-10.55,7.47-16.69,9.68-1.47.53-3.35,1.83-4.66.32-1.54-1.77.33-3.45,1.22-4.83A37.74,37.74,0,0,1,68,208.27c7.41-4.07,14.64-8.47,22.64-11.44-4.37-6.06-4.45-6.14-10-1-8.54,7.93-17.76,14.5-29.79,15.79-2.42.26-5.74,1.53-7-.79-1.36-2.58,1.93-4.27,3.72-5.64A90,90,0,0,1,82,189c0,2.88-2.52,3.06-4.28,3.84-5.74,2.57-11.55,5-17.2,7.78a41.54,41.54,0,0,0-10.7,7.45A31.62,31.62,0,0,0,67,202.46c5.24-3.51,9.9-7.77,14.73-11.8.57-.48.76-1,.18-1.65-1.9-4.82-5-5.11-9-2.47a100.87,100.87,0,0,1-24.06,11.63c-2.5.81-6.32,2.45-7.35.48-1.5-2.86,1.66-5.56,4.19-7,8.75-4.95,17.27-10.54,27.65-12-1.46-3.43-3.9-3-6.58-1.86-6,2.51-11.86,5.11-17.87,7.45-2.7,1.05-6.44,2.6-8.1-.45s1.87-5.25,4.16-6.93c4.17-3,8.69-5.5,14-6a7.42,7.42,0,0,1,3.69-1.17c1.61-.35.87-1.34,1-.69,0,.1,0,.14-.14.2-1.79,1.11-3.78.38-5.67.6-4,.32-7.94.83-11.91.87-1.68,0-3.91-.39-4.28-2.69-.34-2.08,1.22-3.13,2.76-4.26,4.64-3.38,10-3,15.31-2.89-.37-3.65-2.89-2.9-4.89-2.66-3,.37-5.88,1.13-8.88.2-1.13-.35-2.38-.52-2.76-1.82-.45-1.5.52-2.55,1.55-3.41,2.58-2.17,5.67-2.57,8.91-2.42.89,0,2.14.59,2.24-1s-1-1.89-2.29-1.79a16.48,16.48,0,0,1-6.89-.85c-1.48-.52-2.89-1.18-2.42-3.12a3.09,3.09,0,0,1,3.3-2.5,66.14,66.14,0,0,1,7,1.18c-.82-2.27-3-1.79-4.41-2.31-2-.75-4.77-.94-4.07-3.87s3.33-1.89,5.4-1.66c.64.07,1.28.1,2.47.2-2-2.08-5.55-3.26-3.56-6.28,1.46-2.2,3.45.24,5.12.74,1.85-3.72,1.56-8.68,6.42-10.52.41,3.84-3.34,6.34-3.1,9.58.43-3,3.76-5.64,3-9.56,2.88-1.15,3.45-.88,3,1.75-.56,3.31-2.44,6.07-4,9s-4.52,5.37-3.67,9.47c2.37-3.75,3.27-8.37,7.78-10.22.85,2.72-1.58,4.12-2.51,6.11a28.82,28.82,0,0,0-2.31,5.25c6-5.26,6.65-7,4.79-11.33.84-1.74,2.17-2.55,3.88-1.44,1.44.94,1.43,2.62.87,4.08-.83,2.16-1.86,4.24-2.81,6.36a24.63,24.63,0,0,1-5.4,6.31,5.87,5.87,0,0,0-2.15,5.95c2-5,4.26-9.41,8.76-12.2,2.07-.84,4.38-2.94,6.31-.81,1.58,1.74.77,4.35-.15,6.56-2.06,5-4.85,9.64-9.44,12.49-2.94,1.83-3.17,3.18-1.26,5.66,1.48,1.93,2.79,4,4.68,6.72,1.39-5.06,2-9.42,3.8-13.41,1.44-3.2,3.08-6.25,5.84-8.51,1.42-1.16,3-2.4,4.91-1.31s1.75,3,1.6,4.87a15,15,0,0,1-2.84,7.33c-1.79,2.58-3.77,5-5.64,7.56-5.23,7-5.22,7,1.59,13.57.5-1.13,1-2.19,1.42-3.26.25,1.52-.23,3.17.78,4.56.48-.66.94-.64,1.37.06l1,.89C84.08,185.56,87.4,187.94,90,191Z" transform="translate(-40.38 -9.94)"/><path class="cls-6" d="M170.34,118.93l-1.27.11c-1.86-1.91-1.29-4.35-1.41-6.62A73.18,73.18,0,0,0,165.43,97a9.76,9.76,0,0,1-1.29,11.22c-.31-.71-.62-1.42-.94-2.13,0-2.1.05-3.59-3.18-3.19A12.85,12.85,0,0,1,149.58,99c-1.73-1.65-2.31-3.86-1-5.88,1.14-1.8,3.1-2.09,5.31-1.59,3.47.77,5.58,3.44,8.28,5.42.05-11.65-12.9-28.06-24.19-30.91-1.94-.49-3-.18-3.76,1.79a18.17,18.17,0,0,1-3.7,6.41c-2.06,2.19-4.67,3.18-7.13,1.47-2.81-2-1.57-4.66,0-7,.45-.68,1-1.32,1.73-2.41-3.49.33-6.49.76-9.51.86-2.42.08-5.54.47-5.61-3.19-.07-3.34,2.94-3.51,5.36-4a21.27,21.27,0,0,1,3-.18c.7-1.58-.87-2.31-1.19-3.45-.39-1.38-1.46-2.71-.35-4.24s2.55-1.14,4-.54c1,.41,1.68.62,2.39-.66,2-3.63,4.24-2,6.38,0a1.89,1.89,0,0,1,.62.77c2.39,8.79,9.81,12.23,16.49,17.22C160.17,79,169.84,92.25,171,110,171.17,113,171.44,116,170.34,118.93Z" transform="translate(-40.38 -9.94)"/><path class="cls-7" d="M293.15,72.14l-.27-1.42a1.15,1.15,0,0,1-.21-.94c2.16-5.09,2.16-5.09-3.68-6.47a27.13,27.13,0,0,0-6.34-1c-3,0-4.42,1.73-5,4.44s1.57,2.77,3.21,3.35c1.29.46,2.45,1.05,2.38,2.72L283,74a2,2,0,0,1-1.78.65c-4.12-.79-7.77-.26-10.65,3.24a2.89,2.89,0,0,1-3.52,1c0-.65,0-1.3,0-2a2.06,2.06,0,0,1,.45-2.3c5.13-5.5,7-12.28,7.63-19.77a80.13,80.13,0,0,0-10.13,5c-6.52,3.9-7.85,10.2-8,17.07-1.61.16-2-1.51-3.14-2.08-2.34-4.87-.51-9.31,2.48-12.8s5.21-6.69,3.14-11.39a1.59,1.59,0,0,1,.64-1.75,4.57,4.57,0,0,1,.74,0c3.82-.05,2.42,3.66,4,5.21,2.94-1.94,4.52-9.64,3.15-16.54-3.17.76-3.2,5.6-7,5.42,0-.3,0-.59-.05-.89,1.64-3.26,3.27-6.55,6.33-8.76,2.69-1.94,4.61-1.9,4.63,2.12s0,7.91,0,12.06c4.16-1.29,8.37-3.56,13.2-4,3.75-.34,5.37.69,4.65,4.57-.39,2.12-.33,4.39-1.1,6.35-1.53,3.94-.56,5.72,3.74,6.09,2.73.23,6.69.24,7.41,3,.76,2.91-2.62,5-4.76,7.09A18.15,18.15,0,0,1,293.15,72.14Z" transform="translate(-40.38 -9.94)"/><path class="cls-8" d="M121.08,221c.07,2.57,2.81,2.36,4,3.8-1.13,3.11-4.07,3.07-6.57,3.64-9.36,2.13-19,3.15-27.36,7.46,11-.72,22.61.14,33.79-3l.36.27c.74,3.07-.53,4.93-3.45,5.83l-1.58-1c-7.47.76-13.58,6.07-21.2,6.36a37.68,37.68,0,0,1-11.61,2.12c-1.63.09-3.92.44-4.56-1-.72-1.6.59-3.45,2-4.74.69-.66,1.47-1.21,2.21-1.81-.37,4.13,2.09,4.22,5.14,3.71A83.37,83.37,0,0,0,104.82,239c-6.39,1.17-12.13,2.27-17.82,0-2.83-2.54-5.59.83-8.41.1-1-.27-2.53.58-3.08-.77s.78-2,1.52-2.86c4.63-5.14,10.46-8.53,16.64-11.4,4.19-1.95,8.24-4.43,12.63-5.64,4.69-1.29,2.11-2.55.58-4.15l.39-.56c3.78,0,6.44,1.61,7.4,5.47.31.23.38.72.85.77a2.27,2.27,0,0,1-.68-1.59C118,216.76,120,217.84,121.08,221Z" transform="translate(-40.38 -9.94)"/><path class="cls-9" d="M343.93,146c3.66-2.87,7.86-3,10.51-.1,3,3.22,1.85,6.46-.34,9.48a10.86,10.86,0,0,1-11.85,4.48c-2.62-.62-3.07.36-3.63,2.3a56.58,56.58,0,0,1-5.38,12.75c3.7-.39,7-1.37,10.39-1,2.91.27,5.21,1.41,6.21,4.18s-.27,4.81-2.14,6.72c-4.51,4.64-12.44,5.51-18.95,2-1.42-.78-2.6-2.06-4.28-1.95.46-3.58,5.82-5.06,4.91-7.94-.7-2.23-5.06-3.23-7.37-5.42a12.52,12.52,0,0,1-3.91-12.67c.78-3.3,2.77-5.93,6.31-6.19,3.32-.25,4.61,2.66,6.07,5.12.85,1.44.42,2.91.63,4.36-2.54.12-2.28-2.4-3.38-3.63s-1.74-2.57-3.51-2.28-2.35,1.69-3,3.06c-1.84,4.13,1.83,11.48,6.34,12.94,2.24.72,2-.82,2.2-2.11.34-2.71-.79-5.65,1.24-8.1,2.24,3,.53,6.63,1.57,10.33,2.46-3.46,3.34-7.25,4.55-10.9.47-1.41-.25-1.92-1.07-2.84a23.47,23.47,0,0,1-6.05-18.28c.27-3,1.06-6.27,4.91-6.33,4-.06,5.68,2.82,6.11,6.46a15.08,15.08,0,0,1,0,4c-.49,3.24,1.66,1.54,2.87,1.63.59,2.81-1.82,4.75-2.08,7.41-.28,3,.69,4.07,3.55,3.64a10.93,10.93,0,0,0,5-2.14c1.86-1.39,3.07-3.25,2.47-5.56-.67-2.55-2.94-2.85-5.2-2.83C346.42,146.53,345.06,147.19,343.93,146Z" transform="translate(-40.38 -9.94)"/><path class="cls-5" d="M106.88,214.27c-2.58-1.39-4.59-1.24-6.9,1.09-8.92,9-20.45,13.3-32.28,16.92-.85.26-1.89,1.18-2.52-.24-.48-1.08.38-1.86,1-2.65,7.36-9.76,16.43-17.32,28.25-21.56L92,205.15l.11-.11c5.11,0,13.39,5,15,9Z" transform="translate(-40.38 -9.94)"/><path class="cls-10" d="M317.13,187.89c-6.59,1.85-7.71,1.27-7.95-5.47-.14-4-2.85-3.29-5.14-3.7.77-3.6,2.55-4.44,6.09-3.07,4.26,1.64,4.38,5.92,6.08,9.2C316.51,185.86,316.82,186.88,317.13,187.89Z" transform="translate(-40.38 -9.94)"/><path class="cls-11" d="M99,244.38c3.77-1.68,7.6-3.25,11.28-5.1a13.43,13.43,0,0,1,9.92-1.26c-.11,1.55-.57,3.5-2.15,3.43-6.66-.31-12.14,5.21-19,3.68A2.13,2.13,0,0,1,99,244.38Z" transform="translate(-40.38 -9.94)"/><path class="cls-12" d="M68.12,139.06a36.43,36.43,0,0,0-8.35,14.62c-3.06-5.15-2.81-6.1,1.76-9.6A71.43,71.43,0,0,0,66.91,139Z" transform="translate(-40.38 -9.94)"/><path class="cls-13" d="M316.21,184.85c-.4.1-.63,2.24-1,.43a15.71,15.71,0,0,0-2.63-6.79c-2.49-3.38-6.28-3.18-8.58.24L304,179a1.85,1.85,0,0,1-2.81,0,4.51,4.51,0,0,1,0-.9c2.45-1.92,4.09-5.55,8.26-3.76C314,176.33,316.13,179.92,316.21,184.85Z" transform="translate(-40.38 -9.94)"/><path class="cls-14" d="M323.09,210c0-.55.09-1.1.14-1.65a6.71,6.71,0,0,1,1.63-2.44c2.3-2.33,1.54-4-1.09-5.38-1.58-.83-3.53-1-4.74-2.51.35-.91,1.19-1,2-1.24a16.13,16.13,0,0,1,3.36.66c2.61,1.14,5.38,2.46,5,5.94S326.69,209.22,323.09,210Z" transform="translate(-40.38 -9.94)"/><path class="cls-15" d="M57.89,170.83c2-1.17,4.07-.85,6.87-.48-2.2,1.18-3.84,1.86-5.79,1.54Z" transform="translate(-40.38 -9.94)"/><path class="cls-16" d="M202.43,384.24q-19.25,0-38.47,0c-2.47,0-5.07.42-7-1.75-12.68-14.2-27.94-25.63-41.71-38.67-10.15-9.61-12.1-21.24-11.29-34.15.15-2.53,1.7-2.44,3.42-2.4,63.11,1.48,126.23.17,189.34.67,3.58,0,4.27,1.14,4.41,4.53.52,13.29-3.73,24.11-13.8,33.22s-19.93,18.14-30.08,27c-1.51,1.31-3.28,2.52-4.27,4.17-3.85,6.45-9.49,7.68-16.57,7.35-11.3-.53-22.65-.14-34-.14Z" transform="translate(-40.38 -9.94)"/><path class="cls-17" d="M249,261c4.56,4.64,10.35,7.28,16.15,9.92,2.76-.72,3.81,1.29,4.93,3.13,2.83,4.68,6.12,9.06,9,13.71,2,3.23,3,3.09,5.25-.11,3.31-4.73,7-9.24,10.06-14.72-4.9-1.09-9.5-.25-14-.62-2-.16-4.48.79-5.4-2.13,4.81-1.66,9.88-2.55,14.39-5.11,1-.53,1.66-.92,1.72-2l0,0c3.05.84,4.9-2.8,7.9-2.11,2.24-.05,2.85,1,3.28,3.27,2,10.26-1.1,20.42-.23,30.65.22,2.6-1.72,3.23-4,3.22-5.31,0-10.62,0-15.93,0-1.28,1-2.8.91-4.3.93-56.15.79-112.31.31-168.47.41-1.83,0-3.69,0-5.2-1.32-2-4.84-1.27-10.05-1.86-15.07-.67-5.75-.21-11.64-.12-17.46,0-1.52-.83-3.82,1.4-4.26,2.89-.57,6.22-1.19,8.74.36,1.3.8-.44,3.28-1,4.94a16.18,16.18,0,0,0-.95,2.3c-.65,3.38.25,5,3.88,3.18,4,4.71,7,10.08,10.83,14.89,2.91,3.66,2.81,3.77,5.83,0,2.09-2.6,3.75-5.5,5.88-8.06,1.14-1.37,1.95-3.21,4.2-3.05.53,2.43-.35,5,.85,7.37.52,1,.83,2.34,2.23,2.41s1.75-1.19,2.16-2.3c1.86-5,4-9.85,5.59-14.91,2.33-7.38,2.16-7.44,9.4-7.43a16.47,16.47,0,0,1,8.4,10.57c-.32.67-1.64.82-.61,2.2,1.57,2.11,3.28,4.11,4.93,6.15,2,3.58,5.51,6.1,7.4,10.16,5.23-4.1,8.33-9.57,11.88-14.61,1.47-2.08,2.83-4,5.37-4.83,2.87-1.28,2.27-3.89,2-6.06-.38-3.24,1-4.83,4-4.9,13.75-.36,27.51-.33,41.26,0A5.24,5.24,0,0,1,249,261Z" transform="translate(-40.38 -9.94)"/><path class="cls-18" d="M257.83,300.15c4.57,1.33,9.25.51,13.88.62,8.66.22,17.33.14,26,.26,1.18,0,3-.65,3.22,1.32.26,2.44-1.83,1.76-3.17,2-5.8.9-11.64.57-17.46.58q-86.48.15-172.94.24c-4.33,0-5.59-1.29-3.26-5.17,1.77-1.31,3.83-.91,5.79-.91q71.13,0,142.27,0C254.07,299.07,256.19,298.49,257.83,300.15Z" transform="translate(-40.38 -9.94)"/><path class="cls-19" d="M162,237c-.19,1.85,1.89,3.45.11,5.56-8.18,9.71-10.57,22-14.62,33.54-.9,2.55-1.49,5.32-4.4,8.26-.8-16.17-4.09-31.11-2-46.37l-.05.1c2.87-3.68,6.94-5.86,10.77-8.21,2.9-1.78,5.69-1.17,7.07,2.53.66,1.79,1.06,3.83,3.18,4.65Z" transform="translate(-40.38 -9.94)"/><path class="cls-20" d="M146,173.24c3.69-3.19,4-8,6-12.08,1.31-2.75,1.45-6.1,4.18-8.12l0,0c1.89,9.06,6.19,17.27,9.25,25.91,2.17,3.56,1.75,6.52-1.72,9.39-2,1.7-4,3.51-5.86,5.39l-.65.32c-2,1.69-3.36,5.06-6.69,1.47-1-1.1-3-.67-3.27,1.4-.2,1.34-.66,2.13-2.09,2.13l-.8-.22c-4.45-4.84-2.26-10.52-1.89-15.92.15-2.09,1.29-4.07,1.52-6.22A5.13,5.13,0,0,1,146,173.24Z" transform="translate(-40.38 -9.94)"/><path class="cls-20" d="M181.09,237.06c-4.49-3.47-5.74-9.08-8.81-13.5-1.91-2.76.3-6.25,3.67-6.49,3.58-.25,6.78,1.29,10.16,2,5.75.27,9.47,4.31,13.55,7.52,4.45,3.5,8,7.94,11.38,12.48,1.5,2,4,4.57,1.81,7-2,2.17-4.58,0-6.74-1.09l0,0c-8.25-2.23-16.47-4.53-24.56-7.27Z" transform="translate(-40.38 -9.94)"/><path class="cls-16" d="M175.18,252c3.76-3.57,4.26-7.91,3-12.67-.84-3.12,1.13-2.59,2.94-2.26l-.05,0c3.51,2.75,8.77,1.22,11.94,4.85a7.85,7.85,0,0,1,.83,1.07c1.46,2.22,2.58,4.66,4.35,6.68s1.44,4.9,2,7.4c.82,3,.63,6.16,1.25,9.24.81,4-.85,5.39-5.05,4.62-4.48-.82-8.1-3.55-11.94-5.77a33,33,0,0,1-8.8-9.68C174.93,254.36,175.66,253.1,175.18,252Z" transform="translate(-40.38 -9.94)"/><path class="cls-21" d="M107.06,214.05a52.16,52.16,0,0,0-15-9,26.15,26.15,0,0,1,14.05-1.85c7.31,1.26,14.61.5,21.9,1,.64,2.68,2.69,4.51,4.31,6.48,2.14,2.59,5.17,4.4-.57,6.45-3,1.06.14,2.83.67,4.27-4,2.26-7.64.14-11.35-.34-1.81-1.18-3.32-3.19-5.93-2.14-.29.61-.66.67-1.11.17C112.68,216,109.86,215,107.06,214.05Z" transform="translate(-40.38 -9.94)"/><path class="cls-22" d="M175.18,252a2.48,2.48,0,0,1,.9,2.55c4.53,7,3.37,14.88,3.22,22.56,0,2-1,3.53-3.37,3.28a4.84,4.84,0,0,1-2.33-.73c-2.11-2.13-4.45-4.12-4.53-7.49-1.63-4.44-5.36-7.38-8-11.13-4.79-7-4.06-12.26,2.34-17.79,1.35-1.17,2-.38,2.83.44,2.71,2.72,6.83,4.18,7.68,8.57Z" transform="translate(-40.38 -9.94)"/><path class="cls-23" d="M116.09,268.59c-1,1.07-1.87,2.35-4.15,1.86,1.5-8.27,6-15.17,9.44-22.53,4.06-8.55,12.77-7.61,19.45-10.79.08.32.15.64.23,1l.05-.1c-1.77,1.66-1.81,4.31-1.66,6,.65,7.2-3.83,10.64-8.81,14.15-2.83,2-5.24,4.6-8.67,5.67-1.38-3.26,2.39-3.81,2.81-5.58C121.41,260.86,119.7,265.53,116.09,268.59Z" transform="translate(-40.38 -9.94)"/><path class="cls-24" d="M257.83,300.15,104.09,300c0-.62,0-1.24,0-1.86l178,0c-.52,2.77-2.74,1.88-4.37,1.91C271.06,300.11,264.45,300.11,257.83,300.15Z" transform="translate(-40.38 -9.94)"/><path class="cls-20" d="M140.88,275.89l-13.51,17.19c-3.8-7.68-10.65-12.92-13.23-21l1.89-1.19c8.34-2,16.67-2.78,25,.21C141,272.71,140.92,274.3,140.88,275.89Z" transform="translate(-40.38 -9.94)"/><path class="cls-25" d="M187.28,219l-.2-2c.12-.25.25-.49.37-.74,4.69-6.14,11.22-4.6,17.49-4.19,3.33,1,6.89.47,10.21,1.53a25.45,25.45,0,0,1,4.77.55,14.14,14.14,0,0,1,5,2.18c1.73,1.44,2.82,3,.08,4.64l0,0c-4.25,3.66-9.66,4.11-14.79,5.37-6.73,1.66-12.74.62-17.75-4.49C191,220.36,189,220,187.28,219Z" transform="translate(-40.38 -9.94)"/><path class="cls-26" d="M128.14,202.87l-2.31-4.73a5.4,5.4,0,0,1-1.86-1.59c-1-1.63-3-3.29-1.78-5.27s3.35-.6,5-.26a39.71,39.71,0,0,1,17.86,8l0-.06c.88,4.13,1.73,8.27,2.64,12.4.23,1.05-.26,1.33-1.13,1.71-5,2.21-9.17,1.38-12.74-2.84C131.8,207.9,130,205.34,128.14,202.87Z" transform="translate(-40.38 -9.94)"/><path class="cls-27" d="M170.06,207a3.32,3.32,0,0,1-2-3l-.09-.71c.19-6,3.28-9.86,8.76-12,1.53-.72,3-1.5,4.58-2.18,4-1.6,8-3.06,12-4.54,1.56-.59,3.31-1,4.62.38s.35,3.11-.34,4.57c-1.44,3-3.63,5.49-5.47,8.22a9.84,9.84,0,0,1-.9,1.22C185.87,206.06,177.73,205.89,170.06,207Z" transform="translate(-40.38 -9.94)"/><path class="cls-28" d="M124.91,232.92c-1.8,2.43-4.11,3.14-7.21,3.18-9,.14-17.89,1.44-26.87.92-.89-.05-1.94.5-2.9-.74,7.75-5,16.57-6.37,25.24-8.22,4-.86,8.26-.93,11.88-3.25l5.52-1.77C128.75,226.82,125.76,229.28,124.91,232.92Z" transform="translate(-40.38 -9.94)"/><path class="cls-29" d="M187.08,217c-4.2-.37-8.43-.52-12.58-1.19-3.83-.61-1.39-5-3.58-6.76-.43-1-.43-2.1.83-2.34,7.39-1.42,14.5-4.39,22.21-4,1.6.09,3.56-.12,4.17,1.85.54,1.75-.59,3.21-1.76,4.38-2.92,2.91-6.2,5.4-9.34,8.05Z" transform="translate(-40.38 -9.94)"/><path class="cls-30" d="M169.9,209.18c1.08,4.67,2.52,9.36-.63,13.84-2.31,3.3-5.16,5.31-9.48,5.33-4.57,0-5.67-2.39-5.47-6.23.21-4,2.77-6.93,4.78-10.1l-.06.07c2-1.06,4.07-2,6-3.2,1.76-1.07,3.32-1.27,4.85.29Z" transform="translate(-40.38 -9.94)"/><path class="cls-31" d="M162.08,237.06a8.42,8.42,0,0,0-.71-2.31c-2.1-3.2-1.43-5,2.47-5.52,3-.44,4.44-3.3,6.9-5.06,4.76,6.28,6.34,13.37,6.28,21,0,3-1.1,3.32-3.66,2-4.73-2.39-7.46-6.9-11.33-10.19Z" transform="translate(-40.38 -9.94)"/><path class="cls-28" d="M121.82,239c1.3-1.86,3-3.49,3.44-5.83a9.41,9.41,0,0,0,1.34-1.42c1.88-2.94,3.27-6.78,6.42-8.05,3.35-1.35,5.41,3,8.49,4,2,.64,4,1.46,6.79,2.51-8.52,6.28-17.86,9-27.19,11.76C120.55,240.61,121.72,240,121.82,239Z" transform="translate(-40.38 -9.94)"/><path class="cls-32" d="M168.1,204a11.11,11.11,0,0,1-1.76,2.22c-2.52,1.9-5.16,4-6.59-1.11a5.63,5.63,0,0,0-1.52-2.52c-2.85-2.58-3-5.44-1.14-8.6l0,.06c2.45-3.87,6.43-6,9.88-8.77a5.3,5.3,0,0,1,1.49-.48c3.32.05,2.85,2.64,2.91,4.62.15,5.13-2.29,9.73-3.3,14.63Z" transform="translate(-40.38 -9.94)"/><path class="cls-33" d="M132.26,218.53c6.37-2.31,12.07-3.84,18.16-3.5,2.49.14,4.32.38,3.07,3.73a8,8,0,0,0-.32,4.88c1.58,4.93-1.42,4.66-4.61,4.48C141.7,227.72,137.22,223.37,132.26,218.53Z" transform="translate(-40.38 -9.94)"/><path class="cls-34" d="M141,271.12l-25-.21c6.16-4,11.06-10.22,19.51-10,3.3.1,4.85.82,4.61,4.4C140,267.23,140.69,269.19,141,271.12Z" transform="translate(-40.38 -9.94)"/><path class="cls-35" d="M159.1,212c-1.16-.2-1.73.78-2.57,1.25-3.32,1.86-7.15.31-7.95-3.34a31.46,31.46,0,0,1-.64-6.92c0-1.91-.83-4.71.94-5.54,2.38-1.12,4.41,1.34,5.75,3,2.69,3.29,6.47,6.43,4.41,11.63Z" transform="translate(-40.38 -9.94)"/><path class="cls-36" d="M187,217c3-4.51,8.14-7.16,10.75-12.63-9.31-1.25-17.87.56-26.3,3.34-.3.1-.38.86-.56,1.31l-1,.13h0c0-.73.11-1.46.16-2.2a11.86,11.86,0,0,1,5.93-2c5.75-.76,11.13-2.3,15.07-7,1.13,1.67.21,2.71-1.23,3.78a18.07,18.07,0,0,0,5.78-3.17,6,6,0,0,1,6.82-1c2.95.3,6,0,8.56,2.07.11,3.31-2.47,2.39-4.13,2.38-2.6,0-5.16-1.07-8.11-.34,3.9,2.85,1.32,5.25-.59,7.77,2.42,1.32,4.91,1,7.31,1.22,1,.09,2.14.32,1.85,1.68s-1.29,1.26-2.31.78C198.64,212.7,192.28,212.31,187,217Z" transform="translate(-40.38 -9.94)"/><path class="cls-37" d="M118.86,249c-3.33,8-7.34,10-14.86,8.16-3.13-.75-1.64-3.14-1.89-4.85s-.16-3.48,2.4-3.3c.49,0,1,0,1.49,0Z" transform="translate(-40.38 -9.94)"/><path class="cls-38" d="M187.28,219a7.34,7.34,0,0,1,5.77,2.42c6,6.54,13.19,4.28,20.18,2.91,4-.79,7.86-2.22,11.78-3.37l0,2.19c-6.64,3-13.68,4.5-21.27,5.39,4.75,4.59,9.51,9,11.24,15.49l.14,1.94c-1.71,4.13-4.51,1.81-7,1.18a3.26,3.26,0,0,1-2-2.18l7.6,1.05c-7-12.23-16-20.94-27.6-27Z" transform="translate(-40.38 -9.94)"/><path class="cls-39" d="M297.15,257.29c-2-2-2-2-3.3-4.88l9-1.16C303.9,256.05,301.58,257.66,297.15,257.29Z" transform="translate(-40.38 -9.94)"/><path class="cls-40" d="M116.09,268.59c3-4.87,5.49-10.13,11.29-13.55-.17,4.49-4.88,5.36-5.41,8.79Z" transform="translate(-40.38 -9.94)"/><path class="cls-41" d="M120.23,244.72h-9.47C114.13,242.78,117.12,242.35,120.23,244.72Z" transform="translate(-40.38 -9.94)"/><path class="cls-42" d="M146,173.24,145,175.8c-.68,1-.32,3-2.41,2.77a2.69,2.69,0,0,1-1.19-.63c-2-2.42-4-4.88-6.86-6.3-3.09-2-6.3-3.77-9.32-5.87-1-.87-1.76-1.94-3.58-2.21-.71,2.86,1.34,5.69.31,8.48l1,6.29c-2.11-2.4-6.47-1.45-7.4-5.76-.51-2.34-2.61-.49-4,.16s-2.33,3.51-4.52,1.68c-1.8-1.5-3.15-3.3-2.4-6.07a12.88,12.88,0,0,0,0-4.91c-.15-1.11-.83-2.79-2.1-2.27-5.45,2.2-5.48-2.55-6.73-5.25a74.28,74.28,0,0,1-5.45-16.23c10.52,5.26,22,6.06,32.78,9.49,9.07,2.88,15.78,8.93,21.21,16.52A9.22,9.22,0,0,1,146,173.24Z" transform="translate(-40.38 -9.94)"/><path class="cls-43" d="M209,69c.86,14.56.56,29.17,1.84,43.73.41,4.67,0,10.49-3,13.21-3.64,3.29-5.85,8-10.32,10.74-1.28-3.73.36-7.53-1.39-10.86.75-4-2.61-9.55,5-11.3-5.66-1.27-5.1-5-5.17-8.77-.28-15.93,1.17-31.76,2.22-47.61a12.72,12.72,0,0,1,.64-2.36C203.09,59.56,207.14,63.46,209,69Z" transform="translate(-40.38 -9.94)"/><path class="cls-44" d="M221.24,31c2,15.21,3.92,30.44,3.95,45.82.73,2.1.37,4.27.33,6.39-.08,4.2-3,5.8-6.63,3.77-3.27-1.8-4.66-5-6-8.24-.77-1.85-.95-3.85-1.64-5.72-.33-15-.5-30.06,1.55-45,1-4.51,1.82-9.09,4.46-13.83C219.48,20,220.16,25.55,221.24,31Z" transform="translate(-40.38 -9.94)"/><path class="cls-45" d="M135.75,153.14a63.77,63.77,0,0,0-19.21-8,2.82,2.82,0,0,1-2.32-2.28c-2.15-9.05-5.76-17.26-14.63-23.44,16.19-1.87,29.14,3.13,41.18,11.42,2.12,1.46.75,3,.2,4.39C138.72,140.84,135.82,146.26,135.75,153.14Z" transform="translate(-40.38 -9.94)"/><path class="cls-46" d="M156.11,153c-.13-2.3-1.06-1.58-1.93-.46-2,2.56-2.43,5.78-3.67,8.66-.71,1.67-1.46,3.32-2.46,5.57a109.57,109.57,0,0,0-10.35-12c-1.6-1.58-.79-3.84-.17-5.7A156.69,156.69,0,0,1,146,128c2.64,1.2,1.85,3.48,1.88,5.63,2.22-3.88,2.65-7.79.61-11.87.74-1.91-1.78-6.29,3.57-4.69a44.24,44.24,0,0,1,11.7,21.06c1.06,4.61,1.53,9.18-3.8,11.94-1.42.74-2.24,2.47-3.92,3Z" transform="translate(-40.38 -9.94)"/><path class="cls-47" d="M196.05,140.94c3.89-2.33,5.75-6.75,10.07-10,2.39,16.44,1.35,31.45-8.15,45-.91.61-1.31-.95-1.84-.57s.16,1.07.3,1.63c-1.73,2.78-4.79,3.51-7.47,4.82-.71.6-1.45.69-2.05-.09a1.94,1.94,0,0,1,.18-2.61c2.72-5,3.44-10.56,4.93-15.9.82-2.93-.8-3.47-3.25-2.14-1,.55-2,1-3.13,1.61C185.68,153.69,188.2,146,196.05,140.94Z" transform="translate(-40.38 -9.94)"/><path class="cls-48" d="M196.89,54A525.32,525.32,0,0,0,195,108.82c.12,5.43-3.8,3.83-6.59,4.29-4,.66-2.27-2.49-2.27-3.91,0-16.31-.88-32.64,1-48.9.73-6.21,1.22-12.54,3.85-18.38C193.44,45.7,193.21,50.81,196.89,54Z" transform="translate(-40.38 -9.94)"/><path class="cls-49" d="M180.06,140c2-1.76,4.54-2.53,7.5-3.86-2.88,8.92-3,17.79-4.37,26.49-.47,3-3.26,4-4.14,6.46l-.33.62c-2.79,2.59-5.39,5.39-8.22,7.93-1.24,1.12-2.72,3-4.4.37q-2.88-8-5.75-16.05a8.08,8.08,0,0,1,2.58-6.11c4.42-4.63,8.59-9.52,14.35-12.63C178.61,142.49,179.8,141.64,180.06,140Z" transform="translate(-40.38 -9.94)"/><path class="cls-50" d="M126.12,165.54c3.53.85,6.1,3.34,9,5.31a44.15,44.15,0,0,1,7,7.2l-.05,0c1.65.82,1.8,2.15,1.31,3.74a26.51,26.51,0,0,0-1,12.12c.4,2.41-.73,2.75-2.42,1.92-3.37-1.66-7.25-2.16-10.29-4.56-1.45-3.31-4.83-5.84-4.11-10l-2.59-9.14c-2.24-1.93-1.21-4.87-2.19-7.24-.69-1.65.64-2.28,2.27-1.49C124.16,163.9,125.43,164.3,126.12,165.54Z" transform="translate(-40.38 -9.94)"/><path class="cls-51" d="M209,69c-3.18-4.57-7.71-8.09-10.16-13.22.76-13.73,3.38-26.76,14-37.34-.38,3.13-.69,5.72-1,8.31-2.55,9-1.84,18.27-2.6,27.41C208.9,59.09,209.1,64.06,209,69Z" transform="translate(-40.38 -9.94)"/><path class="cls-52" d="M227.27,79A457.59,457.59,0,0,0,223,31.65a17.68,17.68,0,0,0-.88-2.76L221,19.11c.26-2.86,1.94-1.46,3.08-.89,1.54.76,2.11,2.46,3,3.83a113.27,113.27,0,0,1,5.16,28.85c.71,8.41,1.25,16.82-1,25.11C230.24,79.66,229.91,79.86,227.27,79Z" transform="translate(-40.38 -9.94)"/><path class="cls-53" d="M181,190.33l-3.5,1.65c-6.42,2.27-6.56,2.27-6.84-4.49-.16-3.78-1.7-2.75-3.61-1.43l.07,0c-2.65,0-1.31-1.58-.92-2.56,2.56-6.36,8.21-10,12.92-14.42l0,0,11.46-7.42c-.15,6.14-3.06,11-3.56,16.29-.73,1-.07,2.27-.76,3.26-1.22.6-1.94-1.59-2.55-.92-1.88,2.08.4,3.57,1.17,5.27C185,188.32,182.83,189.2,181,190.33Z" transform="translate(-40.38 -9.94)"/><path class="cls-54" d="M182.07,117c3.58-1.86,7.39-2.21,12.65-2.15-6.9,4.49-12.88,8.86-13.82,16.1-1,7.75-7,9.28-12.09,12.28-1.93,1.14-2.57.43-2.74-1.65a40.6,40.6,0,0,0-1.17-7.36c-2.18-8.12-1-10.43,7.21-13.09,4,3.62,4.54,3.6,7.19-.78A19.9,19.9,0,0,1,182.07,117Z" transform="translate(-40.38 -9.94)"/><path class="cls-55" d="M125.08,199c1.61,2.72,1.76,3.77-2.31,4.16-8.2.78-14.79-2.05-20.91-6.94-1.26-1-2.32-2.46-4.24-2.25a1.33,1.33,0,0,1-1.51-1.49A2.47,2.47,0,0,0,93.17,190c.47-2.18-2.42-2.58-2.46-4.73,8.43-1.4,15.5,3.71,23.36,4.68C120.31,189.86,123.56,193.39,125.08,199Z" transform="translate(-40.38 -9.94)"/><path class="cls-56" d="M227.27,79c3.24.35,2.35-2.55,2.67-3.92a99.52,99.52,0,0,0,2.25-24.17c1.51,4.62,1.25,9.49,1.74,14.23.75,7.26.85,14.59,1.23,21.89v21.37c-4.76-1.47-7.4-3.57-7.15-9C228.31,92.61,227.56,85.79,227.27,79Z" transform="translate(-40.38 -9.94)"/><path class="cls-57" d="M196.89,54c-4.89-.91-4-5.67-5.7-8.71-.49-.9-.17-2.24-.21-3.37a34,34,0,0,1,8-16c1.49-.51,2.09-2.16,3.47-2.76s3-1.76,3.65.86C199.83,33.06,197.37,43.23,196.89,54Z" transform="translate(-40.38 -9.94)"/><path class="cls-58" d="M195.19,129c-.06,3.67-.11,7.34-.17,11-2.61,1.57-4.17,4.55-7.44,6a17.71,17.71,0,0,1,3.57-10.53c.57-.82,1.24-1.78.56-2.7-.81-1.09-1.83-.25-2.64.19-2.62,1.43-2.84.17-3.11-2.18-.56-4.82,1-8.43,5-11,.94-.6,2.17-1.41,3.08-1.22,1.47.3.79,1.92.86,3C195.1,124.05,195.11,126.54,195.19,129Z" transform="translate(-40.38 -9.94)"/><path class="cls-59" d="M164.14,108.2c1.94-4.69.58-9.42.33-14.2,4.55,7.79,4.78,16.37,4.6,25-.48,2.59-3.14,3.18-4.59,4.89-.74.88-1.95,2.22-3.32,1a3.08,3.08,0,0,1-.53-4.07A29.2,29.2,0,0,0,164.14,108.2Z" transform="translate(-40.38 -9.94)"/><path class="cls-60" d="M81.09,181.14l-1.37-.06c.38-10,4.08-18.52,12.33-26.33C92.49,166.11,87,173.72,81.09,181.14Z" transform="translate(-40.38 -9.94)"/><path class="cls-61" d="M101.88,163.05c.93,6.93-.43,12.78-2.62,18.57-1.07,2.81-3.11,2.56-5.28,2.26-2.93-.41-2.11-2.74-1.74-4.28C93.74,173.44,95.76,167.49,101.88,163.05Z" transform="translate(-40.38 -9.94)"/><path class="cls-23" d="M125.51,181.21l4.51,8.91c-.74,1.74-2.15,1-3.39.94-2.2-.06-4.24-1-6.65.19-2.15,1.07-3.41-1.21-4.45-2.92-1.19-1.31-1-2.77-.43-4.25.21-2.44-.58-4.77-1.32-7.83Z" transform="translate(-40.38 -9.94)"/><path class="cls-62" d="M90,191c-3.41-2.3-8-3.53-8-8.92,6.62-6.37,11-13.92,12.26-23.12,3.49,3.84,3.77,4.44.87,8.41-3.89,5.31-3.9,12-6.61,17.71C88,186.24,90.31,188.7,90,191Z" transform="translate(-40.38 -9.94)"/><path class="cls-63" d="M180.06,140c2,2.54.16,3.09-1.79,4.19A47.83,47.83,0,0,0,160.35,162c-3.31-7.45-3.33-7.47,3.52-12.37C169,145.91,174,142.09,180.06,140Z" transform="translate(-40.38 -9.94)"/><path class="cls-64" d="M115.91,187c1.53,1.88,2,5.13,6.06,2.58,1.85-1.15,5.22,1.35,8.05.51,2.86,3.82,7.82,3.11,12.1,6.09-1.86-5.29-.71-9.64.46-13.91.45-1.67-.08-2.89-.54-4.27,1.64.12,2-1.52,3-2.22-.21,5.54-2.8,10.74-2.15,16.46.28,2.5.66,4.79,2.2,6.8-7.27-2.89-14.15-6.92-22.46-7.55l3.21,6.62-.75.89c-1.78-5.32-6.57-7-11-9.09a3.44,3.44,0,0,1,0-.64C116.08,189.72,114.94,187.5,115.91,187Z" transform="translate(-40.38 -9.94)"/><path class="cls-65" d="M113.52,174c-.87,4.13-.14,7.75-1.32,11.35-1.29,3.92-3.56,1.84-5.48,1.38-3-.7-1.87-2.45-.76-4C108,179.74,109.54,176.35,113.52,174Z" transform="translate(-40.38 -9.94)"/><path class="cls-66" d="M182.07,117a24.15,24.15,0,0,1-3.74,7.34c-1.88,2.58-3.32.08-5-.16-2.49-.36-2-1.55-1.21-3C175.28,119.36,178.37,117.43,182.07,117Z" transform="translate(-40.38 -9.94)"/><path class="cls-67" d="M179.1,169.05c-2.4,4-6.83,6.1-9.36,9.92-1.39,2.09-4.44,3.72-2.64,7.06l-10,8c.38-3,2.76-4.41,4.86-5.87,3.4-2.37,4.63-5.32,3.4-9.29l.78-.91c2.13,1.65,2.84-.54,4-1.49C173.05,174,175,170.26,179.1,169.05Z" transform="translate(-40.38 -9.94)"/><path class="cls-68" d="M206.09,24.06C203,21.92,201.65,26.48,199,26c2.81-5.68,7.9-8.41,13.76-10.27Z" transform="translate(-40.38 -9.94)"/><path class="cls-69" d="M149.07,123c1.49-.59,1.94-.09,2.06,1.51A16.78,16.78,0,0,1,147,137c-1.4-3.19,1.27-6.45-1-9.09a1.92,1.92,0,0,1,.2-.91C147.57,126,147.17,123.68,149.07,123Z" transform="translate(-40.38 -9.94)"/><path class="cls-70" d="M227,22.05c-2.33-.34-2.55-5-6.07-2.94a15.66,15.66,0,0,1-1.67-8A12.69,12.69,0,0,1,227,22.05Z" transform="translate(-40.38 -9.94)"/><path class="cls-71" d="M103.59,174.58c2.46,2.33,1.35,9.55-1.5,10.46a1.88,1.88,0,0,1-1.41-.17c-1-.61-.33-1.38-.06-2.09.52-1.38,1.06-2.76,1.56-4.15S103.11,176,103.59,174.58Z" transform="translate(-40.38 -9.94)"/><path class="cls-72" d="M149.07,123c-1.15,1.21-.4,3.74-2.84,4,1.08-4.56,2.75-9,2.37-14.27l3.49,4.25C147.3,117.11,149.63,120.78,149.07,123Z" transform="translate(-40.38 -9.94)"/><path class="cls-73" d="M126.12,165.54l-5.05-2.26c.68,3.23,1.27,6,1.85,8.79l-.94,0c-1.42-1.26-.77-3.1-1.31-4.62-.69-2-1.81-5,.06-5.71S125.21,162.94,126.12,165.54Z" transform="translate(-40.38 -9.94)"/><path class="cls-74" d="M186,180.93a3.73,3.73,0,0,1,1-3c.05.4.09.8.14,1.2.09,1.28-.27,2.85,1.87,2.71l.1.17c.07,2.44-1.84,2.78-3.55,3.34a1.12,1.12,0,0,1-.92-.88A2.68,2.68,0,0,1,186,180.93Z" transform="translate(-40.38 -9.94)"/><path class="cls-75" d="M115.91,187c.2,1.43.57,3-1.88,2.27-1.78-2.18,0-3.63,1.07-5.22C116.05,184.87,114.33,186.41,115.91,187Z" transform="translate(-40.38 -9.94)"/><path class="cls-76" d="M282.53,228.91c6.37.08,11.4-2.36,16-5.8,2.32-1.75,4.41-2,7.31-1.25,6,1.58,11.89,4.35,18.44,2.39,2.3-.69,1.8,1.22,1.45,2.47-2.4,8.5-17.82,24.55-29.6,23.57-2.26-.19-4.07-.37-5.66-2.29-3.7-4.46-7.45-8.94-12.8-11.62-1.19-.6-2.09-1.47-.88-2.64C278.65,231.9,277.56,226.19,282.53,228.91Z" transform="translate(-40.38 -9.94)"/><path class="cls-77" d="M274.26,193.74c-2.48-1.54-4.42-3.75-4.79-6.55-.91-6.87-4.6-12-9.54-16.42-1.41-1.25-1.73-2.2-.8-3.7l0,0c5.62-4.69,11.39-9.13,18.5-11.43,1.77-.58,3.47-1.33,5,.45,7.22,8.42,11,18,9.94,29.24-.26,2.6-1.35,3.42-4,3.79-4.45.61-9.3.61-12.71,4.41C275.39,194.42,274.82,194,274.26,193.74Z" transform="translate(-40.38 -9.94)"/><path class="cls-78" d="M274.26,193.74l1.56-.18c13-4.78,26.59-2.81,39.94-3.55,2.39-.14,2.17,1.53,2,3a31.43,31.43,0,0,1-5.8,14.64c-.85,1.18-2.24,2.06-2.19,3.77l.16.41-.41-.15c-3.17,2.59-6.53.53-9.7.17a49.24,49.24,0,0,0-18.2,1.27c1.21-4.41-.91-6.64-4.53-8-1.57-.59-4.2,1-4.65-1.55s-.83-5.29.53-7.79C273.33,195.09,273.82,194.43,274.26,193.74Z" transform="translate(-40.38 -9.94)"/><path class="cls-78" d="M247.13,248c-.2-.79-.38-1.58-.63-2.35-.62-1.93-1.23-4.23.06-5.69s3,.45,4.44.91c7.06,2.21,13.77,1.14,20.05-2.42a5.42,5.42,0,0,1,6.34.11c7.15,4.5,13,10,15.52,18.43a5.47,5.47,0,0,1-2,3.19c-9.39,5.42-18.81,2.82-27.92-.51-6-2.2-12.07-5-15.72-10.9C247.22,248.51,247.18,248.25,247.13,248Z" transform="translate(-40.38 -9.94)"/><path class="cls-78" d="M215,244a92.13,92.13,0,0,0-14.63-16.92c9.36.67,16.67-3.39,24.66-4,10.1-.48,12.24,9.27,18.1,14.22,1.48,1.24-.56,2.33-1.41,3.09-5.6,5-12.27,6.26-19.48,5.22C219.81,245.31,217.42,244.57,215,244Z" transform="translate(-40.38 -9.94)"/><path class="cls-79" d="M217,169c.28-12.94.23-12.86,11.76-6.22,3.58,2.06,7.55,3.45,11.26,5.31s5.8,4.11,3.24,8.6c-2,3.47-2.54,7.55-3.09,11.49-.3,2.16-.68,3-3,2a17.24,17.24,0,0,0-8.82-1.16c-4,.42-6-1.49-7.53-5-1.59-3.68-2.21-7.6-3.58-11.31C215.88,171.57,216,170.32,217,169Z" transform="translate(-40.38 -9.94)"/><path class="cls-80" d="M225.21,121.3c1.62-3.84-.1-8.21,2-12.5,4.84,3.47,6.41,8.53,7.87,13.49,3.44,11.69,3.79,23.77,4.13,35.83.07,2.32.21,4.63.31,6.94-5.23-.31-9-3.93-13.37-6.07-2.08-5.19-2.53-10.62-2.47-16.14.06-5.33,0-10.67,0-16C223.72,124.9,223.39,122.79,225.21,121.3Z" transform="translate(-40.38 -9.94)"/><path class="cls-81" d="M259,165.12c0-14.13.55-28.29-.13-42.38-.67-13.94-.66-27.86-.8-42.17,3.38,1.18,3.43,4.07,3.92,6.43a216.36,216.36,0,0,1,4.21,36.94,95.66,95.66,0,0,1-.12,35C264.14,161.49,261.43,163.14,259,165.12Z" transform="translate(-40.38 -9.94)"/><path class="cls-82" d="M254.13,79.06c2.4,0,2.41,2,2.67,3.48a23.47,23.47,0,0,1,.17,5c-1.15,26.5,1.15,53,0,79.49-3,.19-3.68-3.09-6-4-1.66-1.58-1.35-3.67-1.36-5.63-.07-7.46,0-14.88-1.61-22.3-1-4.33.46-8.91.83-13.35.94-11.06,1.62-22.14,2.79-33.18C252.05,85.28,252.16,81.93,254.13,79.06Z" transform="translate(-40.38 -9.94)"/><path class="cls-83" d="M260.07,194c-2.59.05-4.13,1.9-5.82,3.45-3.39,3.13-6.31,2-9.44-1.4-6-6.54-1.57-12.51,0-18.67A22,22,0,0,1,248.9,169a5.25,5.25,0,0,1,5.77,3.62c1,5.35,7.2,4.79,9.08,8.85.29.63,1.5.53,2.33.57,3.15,6.62,3.05,6.91-3.13,9.73-1.16.53-2.58.73-2.93,2.3Z" transform="translate(-40.38 -9.94)"/><path class="cls-84" d="M236.5,223.17c5.07.05,9.81-.3,14.76,2.53a19.34,19.34,0,0,0,19.1.42c2.78-1.48,4.62.28,6.16,1.61s-.2,3.16-1.12,4.33c-6,7.57-14,8.76-22.84,6.89C244,237.14,237.92,231.14,236.5,223.17Z" transform="translate(-40.38 -9.94)"/><path class="cls-85" d="M277.08,219c-6.7,6.82-14.45,9.48-23.75,6-1.84-.7-3.71-1.38-4.88-3.23,6.05-4,11.06-9.22,16.67-13.69l0,0c2.84-.13,5.15-2.12,8.13-2.06,6.3.13,8.17,2.79,5.71,8.53-.65,1.5-1.26,3-1.89,4.53Z" transform="translate(-40.38 -9.94)"/><path class="cls-86" d="M275,270.14c5,1.81,10.19.4,15.27.88,2.08.2,4.26-.54,6.55.71-4.17,6.35-8.25,12.61-12.38,18.82-1.73,2.6-3.61,1.79-5-.23-3.53-5.06-7-10.17-10.25-15.41-1.08-1.73-2-3.37-4-4C268.28,269.27,271.67,270.4,275,270.14Z" transform="translate(-40.38 -9.94)"/><path class="cls-87" d="M241.08,165.15c.14-17.44-.23-34.8-7.72-51.11-.33-.73-2-2.53.64-3a5.6,5.6,0,0,1,2.71,2.86c10.64,13.15,13.76,28.08,10.36,44.47-.7,3.32-.15,7.1-3.07,9.75C242.68,167.48,241.23,167,241.08,165.15Z" transform="translate(-40.38 -9.94)"/><path class="cls-88" d="M277,219.07c6.63-7.37,15.14-6.19,23.64-5.26,3,.33,2.66,1.64,1.38,3.57-4.77,7.21-15.53,11.05-24.15,8.67-3.07-.85-5.26-1.79-1.63-4.83a2.2,2.2,0,0,0,.81-2.21Z" transform="translate(-40.38 -9.94)"/><path class="cls-89" d="M243,195.64c-7.13,5.89-3.17,12.51-2.18,19.43-9.29-5.35-15.53-12.52-18.08-22.71-.27-1.06-.48-2.25,1-2.13C230.5,190.8,237.6,190.62,243,195.64Z" transform="translate(-40.38 -9.94)"/><path class="cls-90" d="M240.33,204.9c0-6,.85-6.67,6.07-4.84,4.41,1.55,8.59,3.49,11.44,7.47,1.34,1.87,1.68,3.46-.57,5a42.7,42.7,0,0,0-3.67,3.34c-6,5.12-8.27,4.55-11.36-2.81A28.48,28.48,0,0,1,240.33,204.9Z" transform="translate(-40.38 -9.94)"/><path class="cls-91" d="M217.26,201c1.09-3.06.59-6.66,3.67-9.7,2.87,14.29,12.83,22.43,24.73,29-6.22,1.77-11.39-.39-16.61-2.22-2.29.11-3.74-1.6-5.53-2.56C219.22,211.59,216.53,207,217.26,201Z" transform="translate(-40.38 -9.94)"/><path class="cls-92" d="M291,258.89l1.91-1.9c5.64,4-1.4,4-1.88,6l0,0c-7.5,2.49-14.74,5.68-23,5.12-9.68-.65-18.61-7.32-21.35-16.6-.39-1.31-1-2.5.44-3.51h0c5.43,9.28,26.55,17.44,39.55,13.65C288.36,261.13,290.22,260.87,291,258.89Z" transform="translate(-40.38 -9.94)"/><path class="cls-93" d="M184.24,263.8c4.25,1.77,7.87,4.84,12.43,6,3.65.92,5-.3,4.16-4-.77-3.37-1.49-6.75-2.24-10.12a51.11,51.11,0,0,1,14.82,0,91.28,91.28,0,0,0,26.15-.08,11.36,11.36,0,0,1,7.23,1.18L249,261c-14.47,0-28.94.1-43.41,0-3,0-4.54.15-3.67,4.06.71,3.15,1.77,8-4.68,6.93a6.94,6.94,0,0,1-2.71-.39c-4-1.8-8.62-2.6-10.67-7.24Z" transform="translate(-40.38 -9.94)"/><path class="cls-94" d="M235.17,113.94,234,111.07c1.13-.08,2.36.15,3.09-1.08,2.28-1,1.46-3,1.77-4.75s-.52-3.86,2.16-4.3a2.36,2.36,0,0,0,1,2.1c.36.34.87.74.8,1.2-1.11,7.17.89,13.67,4.4,19.25a347.18,347.18,0,0,1,3.48-38.22c.3-2.27.34-4.68,2.49-6.23l.95,0q-1.74,20.25-3.46,40.51c-.64,7.52-1.49,14.92-.13,22.61,1.21,6.76.43,13.88.52,20.84,0,.73,0,1.45,0,2.18l0,0-2-.22c-2.49-3.44-1.5-7.36-1.26-11a62.5,62.5,0,0,0-5.76-31.76A19.3,19.3,0,0,0,235.17,113.94Z" transform="translate(-40.38 -9.94)"/><path class="cls-95" d="M208.13,247.13c2.34-.39,5,1.22,7-1.18,10.13,2.64,19.91,2.83,28.57-4.83.67,6.82-.76,10-7,11.69C226.43,255.64,216.35,255.48,208.13,247.13Z" transform="translate(-40.38 -9.94)"/><path class="cls-96" d="M260,194a4.45,4.45,0,0,0,1-.14c3-1.26,6.83-3.67,9.2-1.1s.84,7,.62,10.57c-.21,3.29-4.85,1.85-5.74,4.7l0,0c-1.81-.64-3.71,2.52-4.8.77-1.85-3-4.46-5.18-6.51-7.89-.7-.93.66-1.69,1.3-2.32,1.6-1.59,3.3-3.08,5-4.61Z" transform="translate(-40.38 -9.94)"/><path class="cls-97" d="M267.09,121c.21-13.25-1-26.33-5-39.9,3.41,2.67,5.2,5.43,6,8.82a69.26,69.26,0,0,1,2,15.19c0,17.26.06,34.53.11,51.79l-3,1c.07-11.84-.58-23.69.4-35.52A2.47,2.47,0,0,0,267.09,121Z" transform="translate(-40.38 -9.94)"/><path class="cls-98" d="M215,161c-1-9.59-.15-19.18.1-28.77,0-1.47-.26-3,.84-4.29,2.4,4.16,3.44,8.93,5.86,12.56a119.7,119.7,0,0,1,.1-15.47c.08-1.09-.31-4.14,2.64-2,.21,10.09-.53,20.17.44,30.23a4.6,4.6,0,0,1-.93,3.73C219.51,154.82,216.15,155.36,215,161Z" transform="translate(-40.38 -9.94)"/><path class="cls-99" d="M246.79,256.79c-14.86.09-29.71.16-44.57.3-1.45,0-2.43-.89-3.63-1.38.51-2-.23-3.85-1-5.64,1.44-2.93,2.81-3.14,7.48-1.18,1.6.15,2.66,1.28,3.9,2.09,10.67,7,21.65,7.45,32.8,1.31,2.12-1.17,3.15-1.44,3.53,1.4C245.41,254.77,246.26,255.76,246.79,256.79Z" transform="translate(-40.38 -9.94)"/><path class="cls-100" d="M211,200.14l-9.87-1.3c-1-1.09-.37-2.18,0-3.27a23.79,23.79,0,0,1,5.63-6.08c1.81-.74,2.88-3.08,5.33-2.44,7.78,2.81,4.37,8.69,3.76,13.79l-.42.57C213.61,202.18,212.22,201.48,211,200.14Z" transform="translate(-40.38 -9.94)"/><path class="cls-101" d="M235.17,113.94c3.42.66,5.26,3,6.85,5.91,5.48,10.06,6.68,21,7,32.14.13,4.32.06,8.64.08,13-3,4.51-3,4.51-5.11,3.2,1-5.67,2.52-11.31,2.9-17,.87-13.27-2.08-25.55-11-35.9A6.44,6.44,0,0,1,235.17,113.94Z" transform="translate(-40.38 -9.94)"/><path class="cls-102" d="M301.15,179H304c2.07,1.2,4.34,1.91,4.16,5.27s-1.1,5-4.66,4.66a33.81,33.81,0,0,0-3.49,0c-5.7,0-7.6-2.51-5.74-7.94C295.48,177.32,298.9,179.89,301.15,179Z" transform="translate(-40.38 -9.94)"/><path class="cls-103" d="M309.5,211.71l.25-.26c3.05-3.1,6.86-2.42,10.79-2.28-.86,5.11-3.94,8.49-7.66,11.3-3.12,2.36-6.11,0-8.69-1.28-1.69-.86,0-2.72,1-3.54C306.72,214.42,308.55,213.57,309.5,211.71Z" transform="translate(-40.38 -9.94)"/><path class="cls-104" d="M266.08,182c-1.59,2.78-2.75,1.93-4.22-.26-1.74-2.6-1.89-2.38-4.75-2.14a2.42,2.42,0,0,1-2.43-2.62c.33-4.44-3.19-5.85-5.78-8l2.21-3.8,0,0C256.38,170.54,263.19,174.53,266.08,182Z" transform="translate(-40.38 -9.94)"/><path class="cls-105" d="M319,198c1.1.24,2.22.45,3.32.71,2.44.55,5.14,1.31,5.46,4.06.34,3-2,4.55-4.58,5.56-2.54-3.06-5.53-.15-8.7-.63C316.26,204.46,316.8,200.89,319,198Z" transform="translate(-40.38 -9.94)"/><path class="cls-1" d="M205,248.89c-2.42.85-5.26-.95-7.48,1.18-2.57-1.68-3.36-4.46-4.43-7.07,2-.51,3.58,1.47,5.16,1-1.53.27-3.08-1.74-5.11-1a14.12,14.12,0,0,0-7.72-3.54c-1.6-.28-3.65-.42-4.41-2.48,8.63,1.78,17.33,3.37,25.09,7.91C204.69,246,205.19,247.51,205,248.89Z" transform="translate(-40.38 -9.94)"/><path class="cls-106" d="M267.09,121c1.18,1,1,2.39,1,3.7,0,9.62,0,19.25,0,28.88a8.76,8.76,0,0,1-.93,4.31L266.09,159l.12-35C267.28,123.2,267,122,267.09,121Z" transform="translate(-40.38 -9.94)"/><path class="cls-107" d="M224.08,157l-.2-35c-1.23-1.77-1.29-3.44.38-5,1.23,1.2.56,2.84,1,4.24a370.36,370.36,0,0,0,.91,37.69Z" transform="translate(-40.38 -9.94)"/><path class="cls-108" d="M212.09,187.05l-4.86,3.28a1.44,1.44,0,0,1-.54-1.21c1.8-3.19,4.79-5.54,6.35-8.9l0-1.24c-.59-1.33,0-2.26,1-3,1.88-2.47.48-5.34,1-8l1.89,1,.21,3.71c-.07,1.45-.15,2.91-.23,4.36-1.54,2.44.93,6.34-2.9,7.93Z" transform="translate(-40.38 -9.94)"/><path class="cls-109" d="M214.07,185c2.57-2.05-.32-6.11,2.9-7.93a24.14,24.14,0,0,0,2.82,8.39c.72,1.4,1.41,2.86-.15,3.94s-2.25-.76-3.21-1.46S214,186.66,214.07,185Z" transform="translate(-40.38 -9.94)"/><path class="cls-110" d="M217.26,201c2.73,1.26.49,3.73,1.32,5.63,1.4,3.22,3.61,5.7,5.68,8.36a3.74,3.74,0,0,1-4.21,0l-4.79-.05c-.46-1.37.65-1.49,1.45-1.84.56-.28,1.93,0,1.19-1.3a32.57,32.57,0,0,0-3.54-5.19c-.93-2.22,1.65-3.65,1.3-5.75l.19,0Z" transform="translate(-40.38 -9.94)"/><path class="cls-38" d="M220.05,215l4.21,0,4.79,3.08c0,.59,0,1.18,0,1.77-.59,1.31-1.68,1.49-2.93,1.3L225,221c1.33-1.57,1.14-2.86-.74-3.82Z" transform="translate(-40.38 -9.94)"/><path class="cls-111" d="M226.14,221.11l2.93-1.3c1.48,1.22,3.85,1,5.23,3.53A19.49,19.49,0,0,1,226.14,221.11Z" transform="translate(-40.38 -9.94)"/><path class="cls-112" d="M211.24,73c1.27,2.47,2.65,4.9,3.78,7.43a11.55,11.55,0,0,0,4.19,5.29c3.25,2.13,5.62.95,5.84-3,.1-2,.1-4,.14-5.92,1.88,8.69,0,17.6,1.55,26.31.21,1.19-.44,1.84-1.65,2-5.5.64-9.08,4.25-12.31,8.4l-1.54-.3Z" transform="translate(-40.38 -9.94)"/><path class="cls-113" d="M253.18,79c-3.12,15.83-3.6,32-5.21,48.37-4.67-7.82-9-15.23-6-24.37,1.13-8.21,1.94-16.54,7.31-23.38C250.14,78.62,251.28,75.21,253.18,79Z" transform="translate(-40.38 -9.94)"/><path class="cls-114" d="M257,77c-2.19-6.85-.24-12.77,6-17.19a48,48,0,0,1,13.29-6.49c0,9.31-2.56,17.29-9.25,23.66C263.72,78.22,260.38,77.61,257,77Z" transform="translate(-40.38 -9.94)"/><path class="cls-115" d="M260.16,49c.6,1.86,1.31,3.69,1.77,5.58s.73,3.75-1.18,4.91c-5.88,3.59-6.58,9.41-6.85,15.46-3.28-.59-4.27-3.45-4.47-5.89-.84-10.55-1-21.11,2.89-31.54C257.24,40,257.8,45.1,260.16,49Z" transform="translate(-40.38 -9.94)"/><path class="cls-116" d="M214.11,176c-.35,1-.7,2-1,3-3.85.6-5.22-.85-5.09-4.9.54-16.55-.19-33.21,3.26-49.53,1.12-5.31,3-10.69,9-14.74C210.8,129.91,212.56,150,214,170,214.09,172,214.06,174,214.11,176Z" transform="translate(-40.38 -9.94)"/><path class="cls-117" d="M213,180.22c.24,4.45-3.3,6.36-6,8.87-1.29,2.62-4.76,3.62-5.13,6.92l-.81,2.83c-1.92-2-3.48-.48-4.83.68-2.17,1.86-4.4,3.35-7.48,3.23,0-2,2.6-2.7,2.23-4.75l0,0a52.25,52.25,0,0,0,6.59-9.26c.66-1.22,1.9-2.7.63-4.07s-2.91-.38-4.18.14c-2.15.86-4.32,1.69-6.48,2.48-1.63.59-3.47.45-2.5-2.28l4-3C197,180.67,204.93,179.32,213,180.22Z" transform="translate(-40.38 -9.94)"/><path class="cls-118" d="M267.08,78.94c.91-.63,2.15-1.07,2.69-1.93,3.45-5.55,8.26-4.57,13.26-3,2.76,1.46,5.37,3.14,7.15,5.8.73,1.07,1.72,2.23,0,3.35-2.75,2.19-6.44-.52-9.18,1.75-4.58.74-8.8-.89-13-2.22C266.62,82.25,263.49,81.14,267.08,78.94Z" transform="translate(-40.38 -9.94)"/><path class="cls-119" d="M283.2,72.82a3.66,3.66,0,0,0-2.36-1.68c-1.94-.63-5.34.9-5.29-2.76.07-5,2.65-7.13,7.38-7.26,4.39-.13,8.41,1.81,12.75,2,2.42.12,2.05,1.75,1,3.13-1.17,1.56-2.55,3-3.84,4.44C290,72.85,286.92,74.38,283.2,72.82Z" transform="translate(-40.38 -9.94)"/><path class="cls-120" d="M224.26,117.06c-.13,1.66-.25,3.32-.38,5-1.73,5.65-.45,11.45-.81,17.17a33.33,33.33,0,0,1-.5,5.87c-2-5.85-6.9-10.45-6.59-17.13.71-7,2.36-13.58,8.28-18.54Z" transform="translate(-40.38 -9.94)"/><path class="cls-121" d="M261.1,43.08c2.37-1.4,3-4.23,4.95-6s3.82-1.93,3.82,1.11c0,5.1-.5,10.21-1,15.3-.21,2.18-2.65,1.79-4,2.32-1.55.63-1.51-1.52-1.78-2.62-.39-1.62-.65-3.26-2.24-4.22C261,47,261,45.05,261.1,43.08Z" transform="translate(-40.38 -9.94)"/><path class="cls-122" d="M241,100.94c-1.84,2.73-.61,5.81-1,8.7-.55,4.11-1.88.94-2.94.35,0-4,.4-8-.11-11.9-1.14-8.6,3.65-14.35,8.79-20.07a1.85,1.85,0,0,1,.82-.53,4.8,4.8,0,0,1,1.33.18C243.76,85,241.06,92.58,241,100.94Z" transform="translate(-40.38 -9.94)"/><path class="cls-123" d="M206.06,168v8.72c0,1-.16,2-1.43,2.2a4.42,4.42,0,0,1-3.74-.77c-1.12-1-.77-2-.11-3.06,1.43-2.37,2.78-4.79,4.16-7.19Z" transform="translate(-40.38 -9.94)"/><path class="cls-124" d="M281,84.92c.1-1.51.54-3.75,2.26-2.49,2.44,1.77,4.65.47,6.92.74C287.48,85.61,284.21,85.06,281,84.92Z" transform="translate(-40.38 -9.94)"/><path class="cls-125" d="M196.43,177c-.89-.11-2.12.24-2.23-1.18-.18-2.2,2.26-1.9,2.87-3.38,1.41,1.15-1,2.75.9,3.5A1.48,1.48,0,0,1,196.43,177Z" transform="translate(-40.38 -9.94)"/><path class="cls-126" d="M81.94,189c.71.4,2.63.53,1.3,1.73-10.23,9.2-20.28,18.83-35.37,19-.13,0-.26-.15-.73-.42,2.26-3.61,5.68-5.81,9.18-7.85,6.6-3.83,13.71-6.62,20.72-9.59,1.75-.74,3.92-.89,5-2.9Z" transform="translate(-40.38 -9.94)"/><path class="cls-127" d="M89.41,199.81C79.19,209.12,70.28,220.17,56,224.19,57.73,215.35,73.88,205.53,89.41,199.81Z" transform="translate(-40.38 -9.94)"/><path class="cls-128" d="M44.52,196.4c9-7.73,18.8-13.61,30.86-14.48C65.83,188.37,56,194.24,44.52,196.4Z" transform="translate(-40.38 -9.94)"/><path class="cls-129" d="M42.5,183.79c2-4.35,5.78-5.76,9.22-7.55,4.32-2.26,9.15-2.65,13.84-3.55a2.23,2.23,0,0,1,2.8,1.4c.58,1.77-1.12,1.63-2.11,1.93-6,1.83-11.23,5.61-17.36,7.25A12.84,12.84,0,0,1,42.5,183.79Z" transform="translate(-40.38 -9.94)"/><path class="cls-130" d="M70.56,169.38c.92-6.49,2.3-12.76,6.38-18.07,1.23-1.6,2.76-3.83,4.64-2.88,2.55,1.28.85,4.08.09,5.76C79.08,160,75.1,164.85,70.56,169.38Z" transform="translate(-40.38 -9.94)"/><path class="cls-131" d="M63.81,168.51c-5.7.5-11,1-16.28,1.38-1.25.09-2.93.24-3.29-1.44-.29-1.34,1.1-1.9,2-2.55C53,161.31,60.78,162.3,63.81,168.51Z" transform="translate(-40.38 -9.94)"/><path class="cls-132" d="M60.86,157.52a25.37,25.37,0,0,1,8.88-16.93c.72-.63,1.63-1.5,2.63-1,1.32.64.9,2.06.63,3.08C71.28,149.05,67.08,153.42,60.86,157.52Z" transform="translate(-40.38 -9.94)"/><path class="cls-133" d="M65,130c2-.08,3.73,0,2.75,2.87a19.62,19.62,0,0,1-9.22,11.34c.3-6,4-9.86,6.5-14.24Z" transform="translate(-40.38 -9.94)"/><path class="cls-134" d="M49.78,158.06c-1.52-.4-4,.79-4.21-1.39-.2-1.64,1.92-2.45,3.59-2.84a18.13,18.13,0,0,1,3.38-.64c2-.05,4.49-.22,4.65,2.46s-2.68,1.28-4,2C52.19,158.12,50.89,157.94,49.78,158.06Z" transform="translate(-40.38 -9.94)"/><path class="cls-135" d="M61.94,120c2.46,1.66.91,3.61.16,5.24-1.14,2.52-2.67,4.86-4.46,8-.17-5.68,1.92-9.55,4.36-13.29Z" transform="translate(-40.38 -9.94)"/><path class="cls-136" d="M96.11,192.51A2,2,0,0,0,97.62,194c2,1.83,3.33,3.84,2,6.69C92.66,195.66,92.33,194.89,96.11,192.51Z" transform="translate(-40.38 -9.94)"/><path class="cls-137" d="M54.83,147.07c-1.73,0-3,.06-4.32,0s-2.72.23-3.64-1a1.27,1.27,0,0,1,.08-1.24c1.23-1.2,2.81-.92,4.19-.49C52.31,144.7,53.76,144.84,54.83,147.07Z" transform="translate(-40.38 -9.94)"/><path class="cls-138" d="M90.14,203.05c3.06-4.88,3.06-4.88,6.45-.08H90Z" transform="translate(-40.38 -9.94)"/><path class="cls-139" d="M47.62,137.51c2.9-.66,4.91-.51,6.37,1.47.15.21-.32,1.22-.43,1.21C51.56,140,49.3,140.27,47.62,137.51Z" transform="translate(-40.38 -9.94)"/><path class="cls-140" d="M159.12,101.07c-3.62-.44-7-1.24-8.83-4.78-.57-1.09-.53-2.63.89-2.9,3.7-.68,6.24,1.67,8.67,4,.8.74,2.13,1.4,1.79,2.74S160,100.74,159.12,101.07Z" transform="translate(-40.38 -9.94)"/><path class="cls-141" d="M133.06,66.44a13.68,13.68,0,0,1-6.36,8,1.58,1.58,0,0,1-2.18-.62c-1.27-2.52.15-4.51,1.74-6.2s3.55-3.05,6.13-2.34C132.7,65.39,132.84,66.06,133.06,66.44Z" transform="translate(-40.38 -9.94)"/><path class="cls-142" d="M127,62.71c-4.18,2.75-8.36,2.92-12.63,2.57-.74-.06-1.85-.1-2-1.09-.16-1.17.81-1.76,1.76-2.1A16.38,16.38,0,0,1,127,62.71Z" transform="translate(-40.38 -9.94)"/><path class="cls-143" d="M132.72,62c-4.84-1.52-6.62-4.76-7.54-8.65a2.22,2.22,0,0,1,.37-1.86c.73-.66,1.5-.05,2.15.49C130.67,54.48,131.7,57.91,132.72,62Z" transform="translate(-40.38 -9.94)"/><path class="cls-144" d="M126.71,60.57c-3.43.08-5.74-1.1-7.33-3.63-.67-1.06-2-2.29-.64-3.42s3-.38,3.88.81C124.09,56.2,125.25,58.31,126.71,60.57Z" transform="translate(-40.38 -9.94)"/><path class="cls-145" d="M271.07,52.66c2.38-3.5,12.46-8,15.45-7.31,1.31.29,1.47,1.23,1.35,2.24-.39,3.1-.75,6.21-1.33,9.28-.71,3.72-3.92,3.16-6.37,3.06-2.88-.13-1.16-2.58-1.18-3.87C278.89,50.41,278.91,50.37,271.07,52.66Z" transform="translate(-40.38 -9.94)"/><path class="cls-146" d="M78.47,236.41c3.94-4.17,8.37-6.72,12.92-9.06,5.15-2.64,10.38-5.14,15.6-7.65,2-.94,3.77-1.13,5.09,1.19,1.42,2.5-.57,3.18-2,4.13-1.67,1.06-3.28,2.46-5.12,3-8,2.26-15.4,5.78-23.12,8.59A3.64,3.64,0,0,1,78.47,236.41Z" transform="translate(-40.38 -9.94)"/><path class="cls-147" d="M87,239c6.7-.15,13.41,0,20.73-1.4-4.93,4.47-10.55,6.07-22.21,6.69-.61-2.1,2.06-3.31,1.52-5.34Z" transform="translate(-40.38 -9.94)"/><path class="cls-148" d="M114,219l1.11-.17c2.14.85,3.68,2,2.37,4.88C115.59,222.61,115,220.66,114,219Z" transform="translate(-40.38 -9.94)"/><path class="cls-149" d="M337.05,187c-4,.18-8.76-.52-9.27-3.62-.56-3.39,3.73-5.62,7.27-6.87,2.5-.89,5-1.75,7.71-1.42,2.42.29,4.71,1,5.46,3.54s-.85,4.5-2.65,5.95A11,11,0,0,1,337.05,187Z" transform="translate(-40.38 -9.94)"/><path class="cls-150" d="M331.05,162c0,3.48.05,7,0,10.43,0,1,.42,2.47-1.62,2.25-5.46-.58-11.34-9.88-9.63-15.25.79-2.47,1.86-4.95,4.68-5.14s3.66,2.44,4.84,4.4c.66,1.11,1.21,2.29,1.81,3.43Z" transform="translate(-40.38 -9.94)"/><path class="cls-151" d="M343.93,146a2,2,0,0,0,.5,0c3.51-1.28,7-1.65,9.48,1.72,1.68,2.29.57,5-1.07,6.76-2.77,3-6.27,5-10.61,3.68-2.53-.75-2.67-5.64-.32-9.42.6-1,1.38-1.83,2.07-2.74Z" transform="translate(-40.38 -9.94)"/><path class="cls-152" d="M338.45,158.45c-5.43-5.58-7.14-11.14-7.11-17.27,0-2.5.61-5.51,3.61-5.72s3.85,2.35,4.44,5C340.63,146.2,339.08,151.6,338.45,158.45Z" transform="translate(-40.38 -9.94)"/><path class="cls-153" d="M68.15,230a51.74,51.74,0,0,1,25.79-20,8.17,8.17,0,0,1,2.81-.85,4.28,4.28,0,0,1,3.72,2.14c.63,1.25-1,1.82-1.75,2.61C90.62,222.71,79.94,226.57,68.15,230Z" transform="translate(-40.38 -9.94)"/><path class="cls-154" d="M163.91,375.8c-.33,1.51-1.36,1.37-2.36,1.22-2.25-.36-12-10.85-12.34-13.2-.1-.73,0-1.38.69-1.65a1.81,1.81,0,0,1,2.14.74c3.5,4.13,6.07,9.14,11.15,11.79C163.55,374.89,163.7,375.47,163.91,375.8Z" transform="translate(-40.38 -9.94)"/><path class="cls-155" d="M295.89,317.48c1.17,4.29-.15,8.12-2.51,13.18C293,325.1,295.5,321.5,295.89,317.48Z" transform="translate(-40.38 -9.94)"/><path class="cls-156" d="M164.85,369.22c.18,1.49-.52,2.4-1.23,2.18a5,5,0,0,1-3.45-3.88c-.19-.86.18-2,1.06-1.94C163.76,365.64,163.16,368.76,164.85,369.22Z" transform="translate(-40.38 -9.94)"/><path class="cls-157" d="M109.16,326.56c-1.29-3.81-1.82-7.54,0-11.19C109.69,319.14,108.71,322.89,109.16,326.56Z" transform="translate(-40.38 -9.94)"/><path class="cls-158" d="M112.46,317.89c1,2.95.74,4.85-.11,6.71C110.83,322.61,110.79,320.69,112.46,317.89Z" transform="translate(-40.38 -9.94)"/><path class="cls-159" d="M217.91,270.92c10.5,0,19.81,0,29.11,0a6.65,6.65,0,0,1,1.58.47c-3.85,6.8-8.76,12.59-13.2,18.72-1,1.36-2.31,2.77-3.89.5C227.19,284.4,222.9,278.15,217.91,270.92Z" transform="translate(-40.38 -9.94)"/><path class="cls-160" d="M195,270.9l2.15,1.09c-4.91,6.86-9.55,13.92-15.53,20.77q-4.4-6.31-8.77-12.64a.69.69,0,0,1,.18-1.1l1.52,0c2.5,1.61,4.1,1.95,4.09-2,0-2.37-1.52-5.44,1.88-7C185.48,268.8,190.26,269.88,195,270.9Z" transform="translate(-40.38 -9.94)"/><path class="cls-161" d="M173.07,279l-.18,1.1a16.78,16.78,0,0,1-5.5-6.81c-1-1.91.45-1.71,1.68-1.15C170.45,274.42,172.52,276.28,173.07,279Z" transform="translate(-40.38 -9.94)"/><path class="cls-162" d="M148.75,233.66c0,3.14-1.68,4-3.06,5-.11.08-1-.54-1-.79C144.88,235.77,146.59,235.13,148.75,233.66Z" transform="translate(-40.38 -9.94)"/><path class="cls-163" d="M149.57,170.67c1,5.06-.39,8.29-2.14,12.75C147,178.52,148.83,175.38,149.57,170.67Z" transform="translate(-40.38 -9.94)"/><path class="cls-164" d="M162.44,176.66c1.35,2.79,2.54,5.06,0,8.37Z" transform="translate(-40.38 -9.94)"/><path class="cls-165" d="M180,270.93c-1.41,2.12-.49,4.53-.86,6.78-.18,1.09.32,2.54-1,3.09-1.71.73-2.79-.35-3.59-1.76,2.06.31,3.65.54,3.54-2.64-.24-7.34.46-14.74-2-21.86a56.63,56.63,0,0,0,8.16,9.26l-.17.23c-1.21,1.34-2.36-.23-3.55-.1C180.1,266.26,182.16,268.75,180,270.93Z" transform="translate(-40.38 -9.94)"/><path class="cls-166" d="M198.73,265c-1.92-1.81-1.9-3.45-2.52-5.59C198.77,260.73,199.32,262.26,198.73,265Z" transform="translate(-40.38 -9.94)"/><path class="cls-167" d="M122.69,250.48a8.17,8.17,0,0,1,3.18-6.25A6.81,6.81,0,0,1,122.69,250.48Z" transform="translate(-40.38 -9.94)"/><path class="cls-168" d="M217.33,214c-.77.15-1.63.13-2.07,1-3.32-1.16-7-.05-10.25-1.79a4,4,0,0,0,1.35-.52c.41-.36.37-1.13-.31-.92-3.57,1.09-6.79-.75-10.11-.89-.8-2.85,8.53-5.4-.06-8.62,2-3.57,5.56-2.1,8.54-1.83,2.24.19,4.43,1.54,6.59-.23l4.65.72c2.75,2,.33,3.52-.44,5.2-.08,2.89-3.21,3.06-4.47,5.07C212.61,212.82,216.26,210.51,217.33,214Z" transform="translate(-40.38 -9.94)"/><path class="cls-74" d="M185.09,185.05c.24,2.37,1.57,2,3.16,1.36,2.45-1,4.95-1.8,7.42-2.73,1.27-.48,2.52-1,3.64.25s.27,2.25-.19,3.21c-2,4.12-4,8.28-8.09,10.9,1.61-4.49,6.12-7.41,6.81-12.89-6.16.32-11.16,4-16.86,5.17,1.15-1.7,3-3,3.28-5.2.23-.57.5-.56.82-.07Z" transform="translate(-40.38 -9.94)"/><path class="cls-169" d="M167,186.06c.54-1.39,1.67-2.28,3-1.92,1.7.45,1.06,2.18,1.13,3.39.13,1.95,0,3.91,0,5.92,2.34.12,4-2.11,6.24-1.47-5.84,1.92-7.35,7.22-9.43,12.09.16-5.24,2-10.24,2-15.52C170.09,185.94,169.25,185.43,167,186.06Z" transform="translate(-40.38 -9.94)"/><path class="cls-170" d="M188.08,189.25c-2.46,3.87-5.21,5.09-7.55,6.83-.85.63-1.77,1.16-2.53.1-.88-1.22.3-1.7,1.12-2.15C181.65,192.65,184.2,191.31,188.08,189.25Z" transform="translate(-40.38 -9.94)"/><path class="cls-171" d="M158.32,226.79c.8-2.25,2-3,3.67-2.75,1,.16.66,1,.51,1.57C161.83,228.31,160,226.79,158.32,226.79Z" transform="translate(-40.38 -9.94)"/><path class="cls-172" d="M147.52,224.5c-1.6,1.8-3.09,1.78-4.67.15C144.16,223,145.61,223,147.52,224.5Z" transform="translate(-40.38 -9.94)"/><path class="cls-173" d="M99.77,152.63c-.09-1.92-2.78-3.83-.16-5.29.73-.41,3.61-.89,4.2.91C104.91,151.59,101,150.93,99.77,152.63Z" transform="translate(-40.38 -9.94)"/><path class="cls-174" d="M142.09,178.05c-2.56-2.17-5.24-4.24-7-7.2C138.42,172.28,141,174.45,142.09,178.05Z" transform="translate(-40.38 -9.94)"/><path class="cls-175" d="M139.8,151.74c-1.32-1.66-.38-3.26.44-4.8a1.05,1.05,0,0,1,1.64-.41c1.78,1.36,1.27,3.16,1.12,5-1.63-.38-.83-2.4-1.35-2.35C140.4,149.26,141.94,151.61,139.8,151.74Z" transform="translate(-40.38 -9.94)"/><path class="cls-63" d="M172.07,154.44c-1.06,0-1.79-.51-1.66-1.13.58-2.76,3.53-3.13,5.2-4.82.43-.43,1.49.18,1.25.92C176.05,151.92,173.36,152.64,172.07,154.44Z" transform="translate(-40.38 -9.94)"/><path class="cls-176" d="M185.08,185.05c-.27,0-.55,0-.82.07-.8-1-2.79,1.74-3.06-1a6,6,0,0,1,2.18-5.18c1.49-1.2,1.32,1.76,2.61,2C185.69,182.3,185.38,183.67,185.08,185.05Z" transform="translate(-40.38 -9.94)"/><path class="cls-2" d="M178.5,129.3c.93,2.14,1.14,3.87,0,5.37a1.34,1.34,0,0,1-2.06-.54C175.78,132.18,176.93,130.87,178.5,129.3Z" transform="translate(-40.38 -9.94)"/><path class="cls-177" d="M291,258.89c1.33,1.7-.43,1.81-1.24,2.25-11.15,6-36-1.14-42.61-12.18-.15-.25-.05-.64-.07-1a49.83,49.83,0,0,0,28.08,13.52C280.77,262.27,286,261.67,291,258.89Z" transform="translate(-40.38 -9.94)"/><path class="cls-178" d="M180,270.93c.5-3-1.91-5.89-.59-9.07,1.87.05,2.64,2.48,4.64,2.17,2.8,3.66,7.15,4.85,11,6.87Z" transform="translate(-40.38 -9.94)"/><path class="cls-179" d="M202,196c-.74-4.12,3.29-4.71,5.13-6.92l.15,1.24Z" transform="translate(-40.38 -9.94)"/><path class="cls-180" d="M193.17,243c0-1.81.81-1.65,2.1-1.1,1.93.81,3.94,1.45,6.66,2.43-3.78,1.2-6.47.93-8.81-1.37Z" transform="translate(-40.38 -9.94)"/><path class="cls-181" d="M217.33,214c-2.58-1.77-5.84-.31-8.92-1.74,1.39-3.29,4.84-4,6.81-6.15,2.6,1.41,3.12,4.38,4.43,6.6S218.14,213.44,217.33,214Z" transform="translate(-40.38 -9.94)"/></svg>